<?xml version="1.0" encoding="UTF-8" standalone="no"?>
<!-- Created with Inkscape (http://www.inkscape.org/) -->

<svg
   width="100mm"
   height="95.403mm"
   viewBox="0 0 100 95.403"
   version="1.1"
   id="svg1"
   xml:space="preserve"
   inkscape:version="1.4.4 (dcaf3e7d9e, 2026-05-05)"
   sodipodi:docname="administratool.svg"
   xmlns:inkscape="http://www.inkscape.org/namespaces/inkscape"
   xmlns:sodipodi="http://sodipodi.sourceforge.net/DTD/sodipodi-0.dtd"
   xmlns="http://www.w3.org/2000/svg"
   xmlns:svg="http://www.w3.org/2000/svg"><sodipodi:namedview
     id="namedview1"
     pagecolor="#ffffff"
     bordercolor="#000000"
     borderopacity="0.25"
     inkscape:showpageshadow="2"
     inkscape:pageopacity="0.0"
     inkscape:pagecheckerboard="0"
     inkscape:deskcolor="#d1d1d1"
     inkscape:document-units="mm"
     showgrid="false"
     inkscape:zoom="0.30929474"
     inkscape:cx="903.66879"
     inkscape:cy="189.13998"
     inkscape:window-width="1299"
     inkscape:window-height="699"
     inkscape:window-x="0"
     inkscape:window-y="0"
     inkscape:window-maximized="1"
     inkscape:current-layer="layer1" /><defs
     id="defs1" /><g
     inkscape:label="Layer 1"
     inkscape:groupmode="layer"
     id="layer1"><path
       style="fill:#000000;stroke-width:2.32135"
       d="m 42.830559,93.659425 c -1.07413,-1.07414 -1.4621,-2.03397 -1.30334,-3.22449 l 0.2261,-1.69512 7.31963,-0.17782 c 7.968581,-0.1936 10.165881,0.0884 9.806001,1.25896 -0.12883,0.41882 -0.39372,1.49393 -0.58881,2.38913 -0.72753,3.33861 -12.469431,4.43947 -15.459491,1.44939 z m -3.20546,-7.8063 c -0.87013,-0.87014 -0.96384,-4.70937 -0.14647,-6.0018 0.5635,-0.89105 18.237701,-1.60215 21.038331,-0.84648 1.21639,0.32821 2.03887,3.73607 1.45918,6.04579 l -0.38639,1.53952 H 50.975939 c -7.43623,0 -10.83443,-0.22076 -11.35081,-0.73703 z m -27.73276,-9.36263 c -1.12443,-1.35485 0.71398,-3.91157 6.31816,-8.7867 2.69316,-2.34282 3.20423,-2.43112 4.12394,-0.71261 1.18405,2.21241 -8.88649,11.37371 -10.4421,9.49931 z m 29.41105,0.078 c -0.0232,-0.0617 -0.16435,-1.06281 -0.31461,-2.22437 -0.77772,-6.01308 -2.78348,-10.54314 -6.5534,-14.80089 -18.851,-21.29035 9.98375,-50.72723 30.848431,-31.49258 9.50789,8.76509 9.5137,21.52355 0.0139,32.34226 -2.75333,3.13586 -4.2185,6.54412 -4.90926,11.41985 -0.76185,5.37734 -0.6331,5.17972 -3.03159,4.65292 l -1.88649,-0.41434 v -8.87573 -8.87572 l 2.08146,-1.82755 c 4.12536,-3.62212 5.15804,-8.74092 2.75941,-13.67799 -2.64109,-5.43616 -4.84087,-5.21041 -4.84087,0.49684 v 3.92117 l -2.57419,1.53506 -2.574221,1.53507 -2.49285,-1.49006 -2.49287,-1.49005 -0.0411,-3.99225 c -0.0485,-4.72613 -0.26542,-5.05799 -2.39386,-3.66339 -4.84712,3.17595 -4.61466,14.35847 0.35955,17.29681 l 1.76822,1.04451 v 9.29408 9.29405 l -1.84257,0.0525 c -1.01341,0.0288 -1.86121,0.002 -1.88401,-0.0601 z m 42.520541,-3.69136 c -2.9615,-2.99215 -3.84276,-4.28138 -3.68514,-5.39117 0.43628,-3.07219 1.77254,-2.35952 8.08702,4.31318 5.71765,6.04198 1.52699,7.06823 -4.40188,1.07799 z M 1.115389,48.283185 c -2.66595,-2.01679 -0.54946002,-3.13169 6.3127001,-3.32538 6.4172999,-0.18107 8.5671699,0.89349 6.3091899,3.15374 -1.14793,1.14906 -11.15004,1.2851 -12.62189,0.17154 z m 86.020741,-0.27954 c -0.89595,-2.82288 -0.005,-3.23167 6.64207,-3.04556 L 100,45.132415 v 1.84257 1.84257 l -6.2474,0.17457 c -5.67554,0.15855 -6.2812,0.068 -6.61647,-0.98832 z M 19.512379,23.411065 c -1.91126,-1.16539 -8.26286,-7.92378 -8.26286,-8.79208 0,-2.39698 3.42336,-1.04215 7.44756,2.94748 5.19311,5.1485 5.70622,8.82679 0.8153,5.8446 z m 60.901451,0.18014 c -0.64309,-1.67588 7.10502,-10.08965 9.2914,-10.08965 2.8441,0 2.03877,2.00369 -2.59766,6.46307 -4.88144,4.69505 -6.04237,5.32402 -6.69374,3.62658 z M 48.837959,12.764525 c -0.76953,-0.76953 -1.0545,-10.0048 -0.36422,-11.80364 0.49164,-1.28118 3.676271,-1.28118 4.167911,0 1.53325,3.9956 0.11328,12.54067 -2.083951,12.54067 -0.5405,0 -1.31437,-0.33168 -1.71974,-0.73703 z"
       id="path1" /></g></svg>
