<?xml version="1.0" encoding="UTF-8" standalone="no"?>
<!-- Created with Inkscape (http://www.inkscape.org/) -->

<svg
   width="100mm"
   height="109.506mm"
   viewBox="0 0 100 109.506"
   version="1.1"
   id="svg1"
   xml:space="preserve"
   inkscape:version="1.4.4 (dcaf3e7d9e, 2026-05-05)"
   sodipodi:docname="cpp.svg"
   xmlns:inkscape="http://www.inkscape.org/namespaces/inkscape"
   xmlns:sodipodi="http://sodipodi.sourceforge.net/DTD/sodipodi-0.dtd"
   xmlns="http://www.w3.org/2000/svg"
   xmlns:svg="http://www.w3.org/2000/svg"><sodipodi:namedview
     id="namedview1"
     pagecolor="#ffffff"
     bordercolor="#000000"
     borderopacity="0.25"
     inkscape:showpageshadow="2"
     inkscape:pageopacity="0.0"
     inkscape:pagecheckerboard="0"
     inkscape:deskcolor="#d1d1d1"
     inkscape:document-units="mm"
     showgrid="false"
     inkscape:zoom="0.43740881"
     inkscape:cx="396.6541"
     inkscape:cy="561.25984"
     inkscape:window-width="1299"
     inkscape:window-height="699"
     inkscape:window-x="0"
     inkscape:window-y="0"
     inkscape:window-maximized="1"
     inkscape:current-layer="layer1" /><defs
     id="defs1" /><g
     inkscape:label="Layer 1"
     inkscape:groupmode="layer"
     id="layer1"><path
       style="fill:#000000;stroke-width:0.562534"
       d="m 47.528266,109.22732 c -1.00374,-0.25948 -3.434656,-1.38979 -4.72935,-2.19903 -0.321656,-0.20104 -1.192357,-0.70147 -1.934879,-1.11206 -1.903356,-1.05247 -3.262949,-1.81592 -5.719067,-3.21144 -1.175054,-0.66764 -2.15596,-1.2139 -2.179795,-1.2139 -0.02385,0 -1.172191,-0.64525 -2.551906,-1.43388 -3.310612,-1.892322 -4.89235,-2.779376 -11.289957,-6.331523 -0.573022,-0.318158 -1.142324,-0.641834 -1.265115,-0.719278 -0.601678,-0.379474 -2.564648,-1.487401 -2.635306,-1.487401 -0.04427,0 -0.57692,-0.301394 -1.183678,-0.669764 -0.606758,-0.368369 -1.139783,-0.669769 -1.184501,-0.669769 -0.04472,0 -0.494434,-0.244264 -0.999371,-0.542817 C 11.350405,89.33791 10.43495,88.827675 9.8209972,88.502598 9.2070445,88.177527 8.6042543,87.826438 8.4814638,87.722409 8.3586734,87.618379 7.7893713,87.288527 7.2163492,86.989405 4.4200425,85.529703 3.2215116,84.666388 2.1643639,83.350403 1.201745,82.152093 0.69762261,81.175957 0.29960413,79.739662 0.00210313,78.666089 -0.00221038,78.30708 3.3676986e-4,54.833474 0.00320569,28.242052 -0.06341011,29.925703 1.0707551,27.78625 2.204481,25.647624 3.7995172,24.293439 7.5005868,22.327327 7.9843596,22.070334 8.453196,21.802933 8.5424464,21.733104 c 0.08925,-0.06983 0.6980863,-0.411282 1.3529695,-0.758786 0.6548821,-0.347503 1.6260451,-0.88409 2.1581371,-1.192414 1.135677,-0.658075 6.471193,-3.676933 7.441852,-4.210632 0.368372,-0.202542 1.339533,-0.734736 2.158137,-1.182653 0.818604,-0.447917 2.383987,-1.330762 3.478633,-1.961879 1.094645,-0.631117 2.333716,-1.335381 2.753484,-1.565032 0.419774,-0.229651 1.566943,-0.8690987 2.549268,-1.4209932 0.982324,-0.551895 2.422326,-1.3576795 3.199995,-1.7906319 C 34.412597,7.21713 35.517711,6.596733 36.090736,6.271422 40.770572,3.6146302 44.636191,1.4776812 45.72606,0.94492637 c 1.605955,-0.78502927 2.917089,-1.02889324 4.94958,-0.92059651 2.460123,0.13108216 2.403892,0.105344 11.610419,5.31446274 2.128368,1.2042477 4.807435,2.7124331 5.953479,3.3515237 1.146045,0.6390906 2.460855,1.3862717 2.921795,1.6604017 0.46094,0.27413 0.874081,0.498419 0.9181,0.498419 0.04399,0 0.760714,0.40186 1.592656,0.893022 0.831943,0.491162 1.549994,0.893022 1.595666,0.893022 0.04568,0 0.415268,0.204424 0.821328,0.454275 0.406059,0.249851 1.250675,0.727336 1.876927,1.061077 0.626246,0.333741 1.300612,0.707555 1.498584,0.830698 0.197978,0.123143 0.800767,0.456263 1.339534,0.740267 0.538772,0.284004 1.080047,0.599014 1.202837,0.700022 0.12279,0.101008 0.658603,0.419756 1.190698,0.708329 0.53209,0.288572 1.268835,0.693166 1.637204,0.899096 0.368375,0.205931 1.272558,0.70988 2.009303,1.119887 0.736739,0.410008 2.076272,1.161789 2.976737,1.670627 0.900464,0.508838 1.905116,1.073588 2.232556,1.255 2.667754,1.478017 3.552822,2.021472 4.420957,2.714587 1.379873,1.101684 2.565807,2.814964 3.216714,4.647078 0.221852,0.624458 0.248201,2.891722 0.287719,24.756692 0.04849,26.842187 0.107777,25.203925 -0.992371,27.42833 -0.909173,1.838281 -2.330386,3.265452 -4.32837,4.346529 -1.451928,0.785612 -2.577924,1.416212 -3.795342,2.125533 -1.10602,0.644417 -1.75951,1.013478 -5.24651,2.963023 -0.716274,0.400462 -1.838135,1.033723 -2.49302,1.407251 -0.654879,0.373522 -1.65953,0.924007 -2.232555,1.223291 -0.57302,0.299291 -1.142321,0.627507 -1.26511,0.729376 -0.122796,0.101875 -0.725585,0.452255 -1.339534,0.778631 -0.613955,0.326376 -1.529411,0.838383 -2.034347,1.137786 -0.504935,0.299409 -0.955851,0.544381 -1.00203,0.544381 -0.04618,0 -0.521665,0.267907 -1.056646,0.595346 -0.534975,0.32744 -1.010187,0.595347 -1.056022,0.595347 -0.04585,0 -0.764658,0.392552 -1.597376,0.872337 -1.796035,1.03482 -4.364019,2.486183 -6.425659,3.631623 -0.818605,0.45482 -2.526508,1.41405 -3.795348,2.13163 -1.268834,0.71757 -2.474411,1.39736 -2.679066,1.51065 -0.20465,0.11329 -0.706976,0.40595 -1.116275,0.65037 -1.769309,1.05657 -4.356379,2.22445 -5.405071,2.44003 -1.43378,0.29473 -3.27133,0.26392 -4.589935,-0.077 z m 5.573008,-26.120838 c 4.318998,-0.54438 7.392445,-1.546602 11.194082,-3.650275 2.635594,-1.458431 5.627109,-4.034745 8.014299,-6.901973 0.413406,-0.496543 0.365186,-0.565195 -0.870121,-1.238728 -0.45023,-0.245478 -1.655813,-0.931252 -2.679067,-1.523932 -1.023254,-0.592685 -2.228832,-1.283015 -2.679067,-1.534068 -0.450229,-0.251059 -1.230936,-0.70796 -1.734893,-1.01534 -0.503963,-0.30738 -1.173732,-0.689976 -1.488374,-0.850213 l -0.572074,-0.291342 -0.818605,0.806724 c -0.823763,0.811803 -2.684799,2.127907 -3.848344,2.721504 -0.917261,0.467949 -2.869742,1.166385 -4.091126,1.463471 -1.96214,0.477253 -6.293428,0.335371 -8.134932,-0.266484 C 42.44524,69.862403 40.35855,68.623923 38.275695,66.60157 36.361866,64.743335 35.114633,62.721567 34.1818,59.96536 c -0.603716,-1.783783 -0.844548,-3.28801 -0.844548,-5.274989 0,-1.836104 0.556492,-4.944935 1.05362,-5.885998 0.06538,-0.123774 0.286065,-0.608751 0.4904,-1.077725 1.562279,-3.585601 5.000446,-6.847238 8.900942,-8.44394 2.14516,-0.878143 3.513878,-1.121546 6.299204,-1.120218 2.770799,0.0011 3.786741,0.191391 6.176738,1.155585 1.964508,0.792537 3.629231,1.832178 4.993628,3.11858 l 1.062233,1.001501 0.859866,-0.517784 c 0.472922,-0.284777 0.903176,-0.517784 0.956116,-0.517784 0.05294,0 0.329482,-0.156508 0.614529,-0.347792 0.285047,-0.19129 0.886643,-0.549798 1.336872,-0.796683 0.731249,-0.400985 1.907839,-1.081246 5.469763,-3.162401 0.59349,-0.346763 1.079069,-0.667492 1.079069,-0.71273 0,-0.114594 -1.558933,-1.884775 -2.455814,-2.788598 -1.510836,-1.522537 -2.860956,-2.606669 -5.015669,-4.027544 -0.975124,-0.643021 -4.021519,-2.116757 -5.507092,-2.664128 -3.182163,-1.172498 -7.422839,-1.825682 -10.783089,-1.660901 -4.655751,0.22831 -8.829048,1.414449 -12.703415,3.610583 -4.429755,2.510942 -7.187987,5.092212 -10.210138,9.555062 -0.602248,0.889349 -1.924023,3.463419 -2.440935,4.753556 -2.112371,5.272189 -2.595607,11.00299 -1.395413,16.548529 0.43951,2.030775 0.531594,2.344326 1.202048,4.093023 0.840099,2.191176 2.14408,4.676107 3.332224,6.350038 3.759739,5.296964 9.419363,9.314821 15.567209,11.051413 1.400428,0.395579 4.300187,0.939876 5.405459,1.01462 2.020669,0.136645 3.789146,0.100423 5.475667,-0.112153 z M 78.583712,64.28163 v -2.381391 h 2.381396 2.381391 v 2.381391 2.381396 h 2.38139 2.381397 V 64.28163 61.900239 h 2.38139 2.381391 v -2.38139 -2.381397 h -2.381391 -2.38139 v -2.381388 -2.381391 h 2.38139 2.381391 v -2.381396 -2.381391 h -2.381391 -2.38139 v -2.381391 -2.381396 h -2.381397 -2.38139 v 2.381396 2.381391 H 80.965108 78.583712 V 45.230495 42.849099 H 76.202321 73.82093 v 2.381396 2.381391 h -2.381396 -2.381391 v 2.381391 2.381396 h 2.381391 2.381396 v 2.381391 2.381388 h -2.381396 -2.381391 v 2.381397 2.38139 h 2.381391 2.381396 v 2.381391 2.381396 h 2.381391 2.381391 z m 0,-9.525566 v -2.381391 h 2.381396 2.381391 v 2.381391 2.381388 h -2.381391 -2.381396 z"
       id="path1" /></g></svg>
