<?xml version="1.0" encoding="UTF-8" standalone="no"?>
<!-- Created with Inkscape (http://www.inkscape.org/) -->

<svg
   width="200mm"
   height="46.057999mm"
   viewBox="0 0 200 46.057999"
   version="1.1"
   id="svg1"
   xml:space="preserve"
   inkscape:version="1.4.4 (dcaf3e7d9e, 2026-05-05)"
   sodipodi:docname="dolibarr.svg"
   xmlns:inkscape="http://www.inkscape.org/namespaces/inkscape"
   xmlns:sodipodi="http://sodipodi.sourceforge.net/DTD/sodipodi-0.dtd"
   xmlns="http://www.w3.org/2000/svg"
   xmlns:svg="http://www.w3.org/2000/svg"><sodipodi:namedview
     id="namedview1"
     pagecolor="#ffffff"
     bordercolor="#000000"
     borderopacity="0.25"
     inkscape:showpageshadow="2"
     inkscape:pageopacity="0.0"
     inkscape:pagecheckerboard="0"
     inkscape:deskcolor="#d1d1d1"
     inkscape:document-units="mm"
     showgrid="false"
     inkscape:zoom="0.43740881"
     inkscape:cx="-51.439293"
     inkscape:cy="165.74883"
     inkscape:window-width="1299"
     inkscape:window-height="699"
     inkscape:window-x="0"
     inkscape:window-y="0"
     inkscape:window-maximized="1"
     inkscape:current-layer="layer1" /><defs
     id="defs1" /><g
     inkscape:label="Layer 1"
     inkscape:groupmode="layer"
     id="layer1"><path
       style="fill:#000000;stroke-width:1.41291"
       d="M 1.0280372,45.789666 0,45.633919 V 25.28493 4.9359247 l 7.7570093,0.00706 C 12.023364,4.9472295 16.691589,5.1181764 18.130841,5.3232315 42.751252,8.8310141 40.108139,45.986597 15.233645,46.050589 l -2.523365,0.007 V 40.07627 34.094968 h 2.264367 c 6.474891,0 8.955152,-2.437196 8.940294,-8.78505 -0.01371,-5.836518 -2.707673,-8.276383 -9.592063,-8.687116 l -3.481757,-0.20771 V 31.236364 46.057652 L 6.4485975,46.001699 C 4.0327095,45.9709 1.5934573,45.875669 1.0280372,45.789963 Z M 48.945552,45.569423 C 41.164985,43.366075 36.511515,34.627725 38.659206,26.253548 42.106555,12.81181 58.920937,11.054818 64.770105,23.525155 70.15406,35.003657 60.267762,48.775689 48.945552,45.569423 Z m 4.686491,-10.884418 c 3.633785,-1.518298 3.105782,-7.931738 -0.711964,-8.647958 -4.762976,-0.893535 -6.442952,6.940218 -1.892042,8.822608 1.044033,0.431839 1.173197,0.42318 2.604006,-0.174641 z M 70.654214,25.496669 V 4.9359247 h 5.046723 5.046735 V 25.496669 46.057426 h -5.046735 -5.046723 z m 16.074763,5.420564 V 15.777051 h 5.046721 5.046735 v 15.140182 15.140193 h -5.046735 -5.046721 z m 25.794393,14.540316 c -4.69056,-1.25623 -8.13959,-4.99227 -9.57064,-10.367014 -0.39246,-1.474001 -0.51501,-5.266273 -0.51838,-16.042461 l -0.004,-14.1121493 h 4.83847 4.83849 l 0.11472,13.5514083 c 0.13762,16.242546 0.56991,17.68097 4.98126,16.573788 4.80882,-1.206934 3.61045,-8.442958 -1.39826,-8.442958 h -1.786 v -5.565047 -5.565047 l 1.21496,-0.185896 c 8.6302,-1.320531 16.532,8.17764 14.89414,17.903149 -1.5466,9.183559 -9.19272,14.505079 -17.60442,12.252227 z m 31.47484,0.201083 c -16.05161,-3.160674 -12.76238,-30.091765 3.66534,-30.010438 10.38323,0.05143 13.81275,5.48509 13.82528,21.904546 l 0.007,8.504686 h -5.04672 -5.04674 v -7.826139 c 0,-4.304364 -0.16149,-8.250927 -0.35889,-8.770114 -1.23426,-3.246339 -5.30168,-3.376608 -6.93295,-0.222051 -1.60502,3.103761 0.44556,6.351005 4.01054,6.351005 h 1.78598 v 5.233649 5.23365 l -2.14953,-0.04098 c -1.18225,-0.02259 -2.87371,-0.183561 -3.7588,-0.357834 z m 23.48491,-8.666634 c 0.0114,-16.308074 2.48654,-20.867202 11.66913,-21.496582 l 2.90382,-0.199036 v 5.847812 5.847812 h -1.14608 c -3.02602,0 -3.3399,1.041624 -3.3399,11.083822 v 7.9816 h -5.04673 -5.04672 z m 18.01357,-1.495322 c 0.1766,-15.695113 2.30114,-19.363939 11.58166,-20.000045 L 200,15.29638 v 5.826308 5.826321 l -1.55141,0.115002 c -2.90921,0.215554 -3.10097,0.842261 -3.24604,10.608829 l -0.12448,8.384632 h -4.85008 -4.85007 z M 90.545438,12.01705 C 88.053367,11.482307 86.548125,9.1926337 86.821085,6.35187 87.251301,1.8745073 92.635622,0.08799873 95.486913,3.4765608 98.703623,7.2994083 95.374445,13.053276 90.545438,12.01705 Z M 149.15887,5.683593 V 0.82377032 h 2.80375 c 1.61993,0 2.80372,0.15785001 2.80372,0.37384118 0,0.2108765 -1.05918,0.3738271 -2.4299,0.3738271 h -2.42989 v 1.6822361 1.68225 h 2.24299 c 1.24609,0 2.24299,0.166144 2.24299,0.3738271 0,0.2076832 -0.99689,0.3738412 -2.24299,0.3738412 h -2.24299 v 1.8691494 1.8691637 h 2.61682 c 2.07684,0 2.61683,0.115718 2.61683,0.5607404 0,0.4517215 -0.58152,0.5607545 -2.99066,0.5607545 h -2.99066 z m 7.47664,0 V 0.82377032 h 2.6082 c 3.65047,0 5.26381,3.11930428 2.58408,4.99623878 -0.75714,0.530335 -0.75661,0.5368202 0.20186,2.428223 1.07543,2.1222999 1.11936,2.2951689 0.58312,2.2951689 -0.20784,0 -0.83168,-0.925228 -1.38629,-2.0560767 -0.95803,-1.9534013 -1.07918,-2.0560774 -2.42585,-2.0560774 h -1.41744 v 2.0560774 c 0,1.1308487 -0.16824,2.0560767 -0.37384,2.0560767 -0.23005,0 -0.37383,-1.8691632 -0.37384,-4.859808 z m 4.82865,-0.7204982 c 1.82212,-1.1533421 0.30779,-3.377513 -2.30527,-3.3859339 l -1.7757,-0.00565 v 1.869164 1.8691496 l 1.7757,-0.00566 c 0.97662,-0.00282 2.01402,-0.156564 2.30527,-0.3409346 z M 164.8598,5.683593 V 0.82377032 h 2.38415 c 1.45691,0 2.53563,0.18254758 2.77367,0.46938208 0.71652,0.863343 0.91732,2.5137601 0.44469,3.654782 -0.47025,1.1352712 -1.01179,1.3882523 -3.35952,1.5693164 -1.30004,0.1003161 -1.30913,0.1134559 -1.4214,2.0635371 -0.22876,3.9734491 -0.82159,1.8829541 -0.82159,-2.8971949 z m 4.7355,-0.9776614 c 1.04311,-1.5919795 0.0838,-2.9123981 -2.22421,-3.0615163 l -1.76362,-0.1138804 v 2.0765503 2.0765643 h 1.67363 c 1.39234,0 1.78128,-0.164322 2.3142,-0.9776614 z m 3.17106,0.7153127 c 0.60042,-2.8171962 1.16986,-5.20037575 1.26546,-5.29595893 0.46598,-0.46599103 0.47091,0.3755932 0.0142,2.39678563 -0.27686,1.2248215 -0.78621,3.5306723 -1.13189,5.1241353 -0.34569,1.5934628 -0.76593,2.8971947 -0.93388,2.8971947 -0.16796,0 0.18588,-2.3049746 0.78628,-5.1221567 z m 4.47359,4.5125581 c -3.35373,-2.3490575 -1.95577,-9.48385915 1.85823,-9.48385915 1.12904,0 2.95789,1.28803475 2.95789,2.08320505 0,0.7485018 -0.3344,0.6651402 -1.0938,-0.2726771 -1.39144,-1.71836398 -3.86873,-0.8411038 -4.52688,1.6030425 -1.07864,4.0057625 1.89462,7.4492863 4.32958,5.014338 0.54422,-0.5442377 1.18271,-0.9251011 1.41889,-0.8463738 0.24385,0.081242 -0.0824,0.6548827 -0.75502,1.3275255 -1.34035,1.3403406 -2.8083,1.5417786 -4.18889,0.574799 z M 183.92523,5.683593 V 0.82377032 h 2.57105 c 3.55463,0 5.1771,2.89886218 2.73104,4.87956098 l -0.84913,0.6875912 0.95108,1.8768926 c 1.06518,2.1020249 1.10889,2.2755859 0.5732,2.2755859 -0.20784,0 -0.83166,-0.925228 -1.38628,-2.0560767 -0.95803,-1.9534013 -1.07917,-2.0560774 -2.42584,-2.0560774 h -1.41746 v 2.0560774 c 0,1.1308487 -0.16822,2.0560767 -0.37382,2.0560767 -0.23005,0 -0.37384,-1.8691632 -0.37384,-4.859808 z m 4.70016,-0.6599409 c 1.82656,-1.2507057 0.4925,-3.4522135 -2.09195,-3.4522135 h -1.86055 v 1.8691636 1.8691496 l 1.7757,-0.00566 c 0.97663,-0.00282 1.9562,-0.1292799 2.1768,-0.2803771 z m 3.52414,0.6599409 c 0,-4.98944282 0.88485,-7.0250187 1.66564,-3.831777 0.13818,0.5654172 0.68668,2.4341571 1.21874,4.1527473 l 0.96738,3.1247298 1.16772,-4.0560054 c 1.75077,-6.0810129 2.45715,-5.91342794 2.45715,0.5828948 0,3.008928 -0.14366,4.8872185 -0.37383,4.8872185 -0.22639,0 -0.38509,-1.7324501 -0.40239,-4.3925172 l -0.0285,-4.3925317 -0.67238,2.2429907 c -0.36982,1.2336519 -0.95769,3.2102815 -1.30636,4.3925319 -0.86094,2.9190663 -0.99746,2.7952253 -2.47251,-2.2429909 L 193.08416,1.7583521 192.9789,6.1508838 C 192.83311,12.23095 192.14965,11.84582 192.14965,5.683593 Z"
       id="path1" /></g></svg>
