<?xml version="1.0" encoding="UTF-8" standalone="no"?>
<!-- Created with Inkscape (http://www.inkscape.org/) -->

<svg
   width="100mm"
   height="58.298mm"
   viewBox="0 0 100 58.298"
   version="1.1"
   id="svg1"
   xml:space="preserve"
   inkscape:version="1.4.4 (dcaf3e7d9e, 2026-05-05)"
   sodipodi:docname="java.svg"
   xmlns:inkscape="http://www.inkscape.org/namespaces/inkscape"
   xmlns:sodipodi="http://sodipodi.sourceforge.net/DTD/sodipodi-0.dtd"
   xmlns="http://www.w3.org/2000/svg"
   xmlns:svg="http://www.w3.org/2000/svg"><sodipodi:namedview
     id="namedview1"
     pagecolor="#ffffff"
     bordercolor="#000000"
     borderopacity="0.25"
     inkscape:showpageshadow="2"
     inkscape:pageopacity="0.0"
     inkscape:pagecheckerboard="0"
     inkscape:deskcolor="#d1d1d1"
     inkscape:document-units="mm"
     inkscape:zoom="0.15464737"
     inkscape:cx="-365.34731"
     inkscape:cy="100.22802"
     inkscape:window-width="1299"
     inkscape:window-height="699"
     inkscape:window-x="0"
     inkscape:window-y="0"
     inkscape:window-maximized="1"
     inkscape:current-layer="layer1" /><defs
     id="defs1" /><g
     inkscape:label="Layer 1"
     inkscape:groupmode="layer"
     id="layer1"><path
       style="fill:#000000;stroke-width:0.0959835"
       d="m 20.454802,58.294519 c -0.0037,-0.0033 -0.269511,-0.01319 -0.590766,-0.02192 -0.321255,-0.0087 -0.675523,-0.0211 -0.787264,-0.02749 -0.111741,-0.0064 -0.374586,-0.01837 -0.584101,-0.02662 -0.209513,-0.0083 -0.443788,-0.0191 -0.52061,-0.0241 -0.07682,-0.005 -0.259671,-0.01614 -0.406331,-0.02474 -0.146659,-0.0086 -0.300938,-0.02046 -0.34284,-0.02634 -0.0419,-0.0059 -0.20761,-0.01765 -0.368237,-0.02615 -0.160628,-0.0085 -0.326335,-0.01977 -0.368237,-0.02505 -0.0419,-0.0053 -0.156184,-0.0163 -0.253957,-0.0245 -0.335065,-0.0281 -0.690094,-0.06091 -0.838056,-0.07744 -0.05587,-0.0062 -0.261575,-0.02888 -0.457122,-0.05032 -0.453308,-0.04968 -1.300227,-0.156464 -1.498343,-0.188915 -0.08381,-0.01373 -0.272369,-0.04341 -0.419029,-0.06595 -1.322242,-0.203276 -2.882303,-0.542765 -4.1802668,-0.909679 -0.466912,-0.131989 -0.6555648,-0.200214 -0.6849079,-0.247692 -0.020405,-0.03302 -0.027772,-0.03354 1.6496704,0.116747 1.2998063,0.116452 2.4215723,0.212375 3.2662963,0.279305 0.09079,0.0072 0.553625,0.03573 1.028524,0.06342 0.742654,0.0433 1.287696,0.07131 2.704636,0.139021 0.14666,0.007 0.523785,0.01957 0.838056,0.02792 0.314272,0.0084 0.605686,0.0197 0.64759,0.02521 0.110358,0.01453 2.452382,0.04735 3.390318,0.04752 0.861466,1.92e-4 2.607366,-0.02713 3.123665,-0.04881 2.044156,-0.08585 2.787733,-0.128746 3.987117,-0.230003 5.216483,-0.440397 9.169249,-1.334285 11.934714,-2.698946 0.733179,-0.361798 1.232028,-0.660463 1.926114,-1.153183 0.255544,-0.181406 0.470571,-0.323883 0.477838,-0.316617 0.02214,0.02214 -0.04111,0.224172 -0.128968,0.411973 -0.114602,0.244959 -0.301022,0.499459 -0.578533,0.78981 -0.668858,0.699804 -1.581786,1.284575 -2.941478,1.884147 -1.514735,0.667941 -3.244617,1.117796 -5.978794,1.554784 -0.896312,0.143251 -2.574243,0.362378 -3.390319,0.442751 -0.07682,0.0076 -0.305383,0.03018 -0.507914,0.05026 -0.20253,0.02008 -0.45966,0.04398 -0.571401,0.05311 -0.111741,0.0091 -0.237449,0.02037 -0.279353,0.02498 -0.0419,0.0046 -0.179039,0.01556 -0.304747,0.02434 -0.125708,0.0088 -0.26856,0.02044 -0.317446,0.0259 -0.04889,0.0055 -0.197451,0.01729 -0.330143,0.02628 -0.132692,0.009 -0.281257,0.02002 -0.330143,0.02452 -0.04889,0.0045 -0.220307,0.01589 -0.380935,0.02533 -0.160627,0.0094 -0.337762,0.02106 -0.393633,0.02583 -0.05587,0.0048 -0.244433,0.01606 -0.419028,0.02509 -0.174595,0.009 -0.374586,0.0209 -0.444424,0.02638 -0.120232,0.0094 -0.303058,0.01788 -1.104711,0.05098 -0.188563,0.0078 -0.479977,0.02006 -0.647588,0.02728 -0.306506,0.0132 -3.612467,0.03287 -3.624913,0.02157 z M 15.58487,55.26971 C 14.903748,55.26021 12.832617,55.2105 12.575485,55.19744 12.449778,55.19104 12.192646,55.17971 12.004084,55.17222 10.638055,55.11799 8.2212452,54.954671 7.1281192,54.84272 7.0652642,54.83632 6.9395567,54.82441 6.8487668,54.81634 6.7579778,54.80824 6.6551248,54.79691 6.620206,54.79111 6.585287,54.78531 6.482435,54.77381 6.3916451,54.76556 6.204554,54.74857 6.0994683,54.73641 5.8456389,54.7024 5.7478649,54.6893 5.6050148,54.67163 5.5281934,54.66312 5.2506282,54.632405 4.3633467,54.496715 3.9409653,54.420391 2.1932652,54.10458 1.0637922,53.746814 0.46459184,53.319234 0.03667031,53.013875 -0.08440334,52.709521 0.05524024,52.29021 0.27761109,51.622489 1.0078779,51.04075 2.2360259,50.552969 c 1.3848468,-0.550016 3.2083,-0.972422 5.0698625,-1.174442 0.6392889,-0.06938 1.8284867,-0.05778 1.8284867,0.01783 0,0.01296 -0.023024,0.02357 -0.051164,0.02357 -0.1735152,0 -2.0496807,0.370686 -2.6525716,0.524086 -1.1647604,0.296361 -2.1717958,0.747053 -2.504135,1.120708 -0.1523268,0.171264 -0.262155,0.413239 -0.24514,0.540096 0.049521,0.369204 0.6193866,0.687238 1.7214457,0.960716 1.8677698,0.463489 4.4463892,0.785996 8.5821338,1.073364 1.465181,0.101806 5.834664,0.08115 8.863082,-0.04191 1.75275,-0.07122 2.04748,-0.08383 2.361795,-0.101072 0.118725,-0.0065 0.341571,-0.01794 0.495215,-0.0254 3.622668,-0.175885 7.165745,-0.515173 9.434483,-0.903454 1.242673,-0.212676 2.060537,-0.402819 3.047477,-0.708499 0.155844,-0.04827 0.503256,-0.192148 0.716838,-0.296876 0.438627,-0.215077 0.722071,-0.425913 0.882067,-0.656112 0.159927,-0.230097 0.145383,-0.56106 -0.04101,-0.933289 -0.07682,-0.153413 -0.04347,-0.156905 0.165537,-0.01733 0.197902,0.132153 0.41505,0.372227 0.51179,0.565819 0.163047,0.326288 0.085,0.57828 -0.299927,0.968444 -0.579008,0.586875 -1.686967,1.18791 -3.131625,1.698815 -1.748329,0.6183 -4.554186,1.218501 -6.892182,1.474306 -0.06984,0.0076 -0.224117,0.02499 -0.342841,0.03856 -0.118725,0.01357 -0.284432,0.03129 -0.368237,0.03939 -0.08381,0.0081 -0.192372,0.02006 -0.241259,0.02658 -0.0898,0.01198 -1.045098,0.09702 -1.396761,0.124338 -1.198258,0.0931 -1.368987,0.104624 -2.450679,0.165458 -0.642804,0.03615 -0.889921,0.0486 -1.282481,0.0646 -0.188562,0.0077 -0.417123,0.01897 -0.507913,0.02506 -0.09079,0.0061 -0.433631,0.01821 -0.761869,0.0269 -0.328239,0.0087 -0.621434,0.01961 -0.651545,0.02425 -0.03011,0.0046 -0.41295,0.0156 -0.850754,0.02436 -0.437804,0.0088 -0.893146,0.02131 -1.011871,0.0279 -0.243354,0.01351 -3.963118,0.0295 -4.647403,0.01998 z m 4.741999,-5.610186 c -0.0031,-0.0025 -0.263366,-0.01211 -0.578279,-0.02127 -0.314912,-0.0092 -0.600614,-0.0211 -0.634892,-0.02653 -0.03428,-0.0054 -0.222315,-0.01724 -0.417861,-0.02623 -0.195546,-0.009 -0.389823,-0.0207 -0.431726,-0.02601 -0.0419,-0.0053 -0.179039,-0.01638 -0.304748,-0.02459 -0.125708,-0.0082 -0.274273,-0.01976 -0.330143,-0.02568 -0.05587,-0.0059 -0.187293,-0.01765 -0.29205,-0.02607 -0.104757,-0.0084 -0.224752,-0.0201 -0.266654,-0.02594 -0.0419,-0.0058 -0.23618,-0.02845 -0.431726,-0.05022 -1.71439,-0.190872 -3.367118,-0.6079 -4.334125,-1.093619 -0.696661,-0.349927 -1.150017,-0.826438 -1.209045,-1.270796 -0.08042,-0.605386 0.318653,-1.124902 1.204793,-1.568413 0.411496,-0.205953 0.813318,-0.348655 1.144873,-0.406585 0.100294,-0.01752 0.110319,0.03193 0.03028,0.149381 -0.107775,0.158153 -0.176001,0.318614 -0.191485,0.450357 -0.07158,0.609062 0.884841,1.035597 2.516649,1.122344 1.22128,0.06492 1.949356,0.08231 3.466507,0.08278 1.283803,3.84e-4 1.804245,-0.01223 2.79352,-0.06779 2.158436,-0.121216 3.734898,-0.310713 4.872504,-0.585694 0.611948,-0.147919 0.600686,-0.149653 1.133567,0.174522 0.844813,0.513937 1.612338,0.917441 2.304655,1.211603 0.192055,0.0816 0.349166,0.154776 0.349136,0.162605 -2.88e-4,0.07803 -1.901038,0.653438 -3.402962,1.030181 -1.403632,0.352087 -2.970959,0.634778 -4.088699,0.737457 -0.104758,0.0096 -0.20761,0.02054 -0.228561,0.02425 -0.02095,0.0037 -0.158088,0.01477 -0.304748,0.02458 -0.14666,0.0098 -0.312367,0.02149 -0.368237,0.02596 -0.310936,0.0249 -1.979882,0.06614 -2.000546,0.04942 z M 50.567376,47.13523 c -0.04916,-0.01937 -0.126994,-0.106277 -0.751368,-0.838966 -0.603956,-0.708729 -0.708882,-0.83639 -0.708882,-0.862472 0,-0.01473 0.04857,-0.04599 0.107931,-0.06945 0.246769,-0.09755 0.655273,-0.318826 0.857103,-0.464277 1.150784,-0.829327 1.842146,-2.119323 2.125198,-3.965352 0.04136,-0.269751 0.04521,-0.918107 0.05792,-9.744557 0.01342,-9.322548 0.0143,-9.456084 0.0629,-9.491622 0.04126,-0.03017 0.294012,-0.03605 1.549833,-0.03605 1.317001,0 1.50744,0.0048 1.556979,0.03953 l 0.05644,0.03953 -9.6e-5,9.198134 c -9.6e-5,8.034295 -0.005,9.253828 -0.03889,9.638314 -0.10813,1.228597 -0.401589,2.269028 -0.939559,3.331122 -0.765432,1.511157 -1.924927,2.543186 -3.516441,3.129868 -0.293529,0.108204 -0.353631,0.122009 -0.419028,0.09624 z M 19.660872,43.235063 c -0.02794,-0.0049 -0.456487,-0.02138 -0.952337,-0.03665 C 15.771666,43.108004 13.801167,42.910106 11.99015,42.523681 10.884763,42.28782 9.9718749,41.91058 9.6350158,41.55045 9.5169693,41.424249 9.4101003,41.238783 9.377103,41.102854 c -0.09003,-0.370863 0.1068816,-0.91117 0.4722479,-1.295806 0.4518001,-0.475628 1.2268961,-0.866172 2.1131451,-1.064739 0.165689,-0.03712 0.30591,-0.06284 0.311603,-0.05715 0.0057,0.0057 -0.0659,0.09488 -0.159094,0.198194 -0.660545,0.732277 -0.583705,1.219184 0.254133,1.610339 0.853665,0.398544 2.462048,0.578899 5.196592,0.582716 0.75653,0.0011 2.269965,-0.02929 2.387192,-0.04786 0.03492,-0.0055 0.252052,-0.01731 0.482517,-0.02617 1.888967,-0.07261 4.070506,-0.265742 6.336214,-0.560934 0.288812,-0.03763 0.886767,-0.129436 1.507963,-0.231527 0.778334,-0.127916 0.94236,-0.137322 1.089121,-0.06245 0.05435,0.02773 0.246486,0.168372 0.426977,0.312546 0.581326,0.46436 1.020843,0.722 1.548335,0.907617 0.150004,0.05278 0.259635,0.104069 0.243622,0.113965 -0.07491,0.0463 -0.651503,0.236401 -1.133649,0.373767 -2.626013,0.748167 -4.792118,1.137859 -7.406513,1.332467 -0.490083,0.03648 -3.229852,0.07469 -3.386637,0.04723 z m 14.488217,-0.48825 c 0,-0.0107 0.162849,-0.121268 0.361887,-0.245706 1.96058,-1.225742 2.909295,-1.946406 4.056955,-3.081749 0.950401,-0.9402 1.507684,-1.69712 1.867391,-2.536347 0.419374,-0.978437 0.465278,-1.816575 0.149523,-2.730031 -0.165985,-0.480181 -0.397269,-0.843771 -0.742551,-1.167327 -0.542687,-0.508539 -1.226095,-0.77277 -2.328282,-0.900199 -0.42143,-0.04872 -1.505503,0.007 -1.861204,0.0956 -0.209819,0.05229 -0.164856,-0.01606 0.156678,-0.238165 0.459013,-0.317072 1.238813,-0.536279 2.158498,-0.606768 1.456465,-0.111631 2.925127,0.408782 3.968443,1.406199 0.656664,0.627775 1.030933,1.30854 1.16877,2.125897 0.06237,0.36982 0.05618,0.98468 -0.01335,1.327257 -0.194372,0.957676 -0.747296,1.889525 -1.684,2.838061 -1.477792,1.496458 -3.79421,2.744168 -6.690394,3.6037 -0.414154,0.122914 -0.568368,0.152644 -0.568368,0.109573 z m 27.554278,-0.603218 c -0.93359,-0.116231 -1.508566,-0.26228 -2.018313,-0.512671 -0.876454,-0.430518 -1.402044,-1.059128 -1.725535,-2.063752 -0.203347,-0.631512 -0.283868,-1.196144 -0.260863,-1.829241 0.04237,-1.166087 0.416336,-2.074603 1.16038,-2.819055 0.883193,-0.883678 2.189937,-1.509004 3.656992,-1.750008 0.573813,-0.09426 1.789522,-0.204413 2.818917,-0.255407 0.857976,-0.0425 0.962142,-0.05223 1.003637,-0.09372 0.03082,-0.03082 0.03758,-0.134456 0.03758,-0.575585 0,-1.794305 -0.455226,-2.76651 -1.475151,-3.150409 -0.654398,-0.246314 -2.023758,-0.273468 -3.247842,-0.0644 -0.653295,0.111579 -1.324221,0.285861 -2.098227,0.545043 -0.269234,0.09015 -0.512832,0.163919 -0.541328,0.163919 -0.02849,0 -0.06799,-0.02571 -0.08778,-0.05714 -0.0316,-0.0502 -0.360041,-1.230377 -0.430446,-1.546699 -0.03892,-0.174862 0.008,-0.229785 0.32174,-0.376545 0.999671,-0.467635 2.880913,-0.934645 4.2449,-1.053776 0.09777,-0.0085 0.23491,-0.02145 0.304747,-0.0287 0.225003,-0.02334 1.158601,-0.02696 1.485646,-0.0058 1.247952,0.08086 2.239521,0.426625 3.032202,1.057355 0.831801,0.661859 1.336803,1.662614 1.461619,2.896465 0.04184,0.413616 0.03586,11.018284 -0.0063,11.101555 l -0.03212,0.06349 -1.083188,0.0066 -1.083188,0.0066 -0.06674,-0.05741 c -0.0591,-0.05084 -0.07358,-0.0985 -0.126492,-0.41621 -0.05897,-0.354127 -0.156946,-0.868992 -0.181806,-0.955426 -0.02297,-0.07987 -0.09473,-0.04702 -0.326805,0.149593 -0.931708,0.789338 -1.914631,1.269677 -3.196571,1.562117 -0.28765,0.06562 -0.39618,0.0774 -0.790546,0.08579 -0.300986,0.0064 -0.556875,-0.0027 -0.749172,-0.02663 z m 1.693323,-2.299496 c 0.501258,-0.06829 1.041091,-0.253376 1.565492,-0.536727 0.524096,-0.283186 1.321715,-0.867164 1.382771,-1.012397 0.02524,-0.06005 0.03078,-0.44124 0.0254,-1.749657 -0.0038,-0.920086 -0.01655,-1.682402 -0.02837,-1.694036 -0.05582,-0.05494 -2.103275,0.02434 -2.784725,0.107823 -0.729471,0.08936 -1.442846,0.32382 -1.871981,0.61524 -0.614103,0.41703 -0.957686,1.211167 -0.914097,2.112794 0.02094,0.433232 0.101198,0.736985 0.291875,1.104711 0.14104,0.272001 0.507281,0.625934 0.805392,0.778323 0.516749,0.264155 0.984548,0.348003 1.528251,0.273926 z m 26.051424,2.320482 c -0.662318,-0.05901 -1.328045,-0.23706 -1.971985,-0.527421 -0.378001,-0.170446 -0.613803,-0.327569 -0.889518,-0.592714 -0.262346,-0.252289 -0.455141,-0.530137 -0.640229,-0.922678 -0.580764,-1.2317 -0.647804,-2.730953 -0.175863,-3.932934 0.282531,-0.719578 0.89546,-1.426941 1.686822,-1.946712 0.77012,-0.505821 1.762109,-0.891155 2.727246,-1.059387 0.564235,-0.09835 1.586482,-0.195992 2.691939,-0.257123 1.173045,-0.06487 1.179011,-0.06539 1.219592,-0.105969 0.04085,-0.04085 0.04883,-0.212772 0.04045,-0.87192 -0.01611,-1.267128 -0.36254,-2.17632 -0.993389,-2.607073 -0.486304,-0.332056 -1.096208,-0.456404 -2.209421,-0.450457 -1.121295,0.006 -2.142235,0.199792 -3.671773,0.696998 -0.302537,0.09835 -0.553912,0.174966 -0.558611,0.170266 -0.0047,-0.0047 -0.112566,-0.396291 -0.239704,-0.870202 -0.185001,-0.689604 -0.225952,-0.873086 -0.20508,-0.918895 0.07506,-0.164745 1.266405,-0.610696 2.351466,-0.880216 1.20591,-0.299538 2.232925,-0.431738 3.364924,-0.433144 0.95161,-0.0012 1.582519,0.08654 2.266018,0.315064 1.543509,0.516066 2.473657,1.568715 2.817585,3.188656 l 0.05901,0.277962 0.0067,5.650531 c 0.0063,5.302681 0.0041,5.652486 -0.0366,5.682276 -0.03307,0.02421 -0.298528,0.03175 -1.118965,0.03175 h -1.075615 l -0.0581,-0.0581 c -0.05949,-0.05949 -0.08807,-0.184491 -0.249331,-1.090586 -0.03335,-0.187409 -0.07086,-0.32844 -0.08921,-0.335483 -0.01742,-0.0067 -0.149053,0.08759 -0.292525,0.209497 -1.288581,1.094907 -2.802854,1.671465 -4.336858,1.651255 -0.174595,-0.0023 -0.363158,-0.0083 -0.419028,-0.01323 z m 1.904673,-2.352644 c 0.393474,-0.07761 0.762329,-0.201913 1.142804,-0.385115 0.616224,-0.296717 1.546603,-0.951714 1.609945,-1.133419 0.03614,-0.103672 0.03899,-3.368764 0.003,-3.425181 -0.05605,-0.08783 -2.297216,0.0072 -3.022392,0.128164 -1.766243,0.294605 -2.539396,1.077551 -2.543083,2.575293 -10e-4,0.422607 0.03398,0.631429 0.158873,0.947407 0.282171,0.713872 0.941079,1.211498 1.756983,1.326922 0.202267,0.02861 0.665622,0.01095 0.893882,-0.03407 z m -15.538908,1.9762 c -0.02117,-0.02117 -0.06876,-0.138307 -0.105766,-0.260305 -0.037,-0.121997 -0.470741,-1.513182 -0.963866,-3.091521 -0.493125,-1.578339 -0.999606,-3.201122 -1.125513,-3.606182 -0.125907,-0.405061 -0.322271,-1.033602 -0.436365,-1.396761 -0.248833,-0.792033 -0.957936,-3.061659 -1.079078,-3.453808 -0.08737,-0.282835 -0.508696,-1.629171 -0.769534,-2.459041 -0.108697,-0.345825 -0.135995,-0.462808 -0.115555,-0.495215 0.02445,-0.03877 0.159985,-0.04295 1.573131,-0.04851 1.652676,-0.0065 1.619961,-0.0088 1.715334,0.120361 0.04743,0.06423 0.538366,1.572126 1.25264,3.847441 1.013697,3.229126 1.778495,5.852683 2.086149,7.156316 0.06331,0.268276 0.129445,0.502593 0.146959,0.520706 0.0257,0.02657 0.07668,-0.09599 0.264113,-0.634892 0.863997,-2.484183 1.725378,-5.484419 2.160359,-7.524647 0.242878,-1.139189 0.40943,-2.179558 0.487525,-3.045336 0.02526,-0.280072 0.04154,-0.363064 0.07846,-0.399982 0.04417,-0.04417 0.127467,-0.04658 1.608415,-0.04658 0.963393,0 1.561833,0.0092 1.561833,0.02399 0,0.07557 -0.344603,1.696841 -0.561678,2.642551 -1.160985,5.057966 -2.461966,9.09764 -3.774464,11.72009 -0.149967,0.299641 -0.194502,0.359462 -0.312388,0.419604 -0.09528,0.04861 -0.155332,0.05021 -1.875326,0.05021 -1.553782,0 -1.781726,-0.0048 -1.815386,-0.03849 z M 15.915013,36.968834 c -0.007,-0.0063 -0.309826,-0.01939 -0.672984,-0.02899 -0.363158,-0.0096 -0.728856,-0.02201 -0.812661,-0.02756 -0.08381,-0.0056 -0.323795,-0.01672 -0.533308,-0.02481 C 11.900346,36.810409 9.594022,36.613718 7.915384,36.377415 6.2981197,36.14975 5.1363588,35.804568 4.8088035,35.454385 4.586233,35.216439 4.6155934,35.037099 4.9278989,34.726921 c 0.571249,-0.567358 2.0387136,-1.22523 4.1683832,-1.86871 1.3742729,-0.415238 2.9726939,-0.741991 4.3934899,-0.898127 0.399656,-0.04392 0.855166,-0.04374 0.845735,3.84e-4 -0.003,0.01397 -0.300726,0.10769 -0.661639,0.208272 -1.71415,0.477712 -2.715998,0.826298 -3.56176,1.23929 -0.4512956,0.220372 -0.7078618,0.385925 -0.9102527,0.587355 -0.3970167,0.395131 -0.3288137,0.68154 0.2133091,0.895767 0.4035879,0.159483 0.7754786,0.237504 1.6365816,0.343349 0.469625,0.05772 0.59112,0.07086 0.977733,0.105693 0.07682,0.0069 0.179675,0.01748 0.228561,0.02347 0.04889,0.006 0.226021,0.01831 0.393632,0.0274 0.167612,0.0091 0.321891,0.01962 0.342842,0.02342 0.02095,0.0038 0.23237,0.01522 0.469819,0.02539 0.23745,0.01017 0.449195,0.02171 0.470544,0.02565 0.36784,0.06787 6.161535,0.06699 6.716425,-0.001 0.0419,-0.0051 0.224751,-0.01657 0.40633,-0.02541 0.181579,-0.0088 0.364428,-0.02027 0.40633,-0.0254 0.0419,-0.0051 0.213324,-0.01646 0.380936,-0.02518 0.167611,-0.0087 0.333317,-0.01986 0.368236,-0.02474 0.03492,-0.0049 0.200626,-0.01631 0.368237,-0.0254 0.167611,-0.0091 0.333318,-0.02051 0.368237,-0.0254 0.03492,-0.0049 0.177769,-0.01615 0.317445,-0.02502 0.139677,-0.0089 0.29967,-0.02069 0.35554,-0.02627 0.05587,-0.0056 0.204434,-0.01705 0.330143,-0.02549 0.125709,-0.0084 0.274273,-0.01994 0.330144,-0.02556 0.05587,-0.0056 0.181579,-0.01667 0.279352,-0.02456 0.09777,-0.0079 0.252051,-0.02036 0.342841,-0.02772 0.158998,-0.01288 0.549752,-0.04982 0.787265,-0.07444 0.06285,-0.0065 0.411409,-0.04062 0.774567,-0.07578 1.552465,-0.150325 3.596272,-0.400242 5.104525,-0.624181 0.693358,-0.102948 2.120217,-0.325459 2.190375,-0.341577 0.04379,-0.01006 0.05714,-0.0019 0.05714,0.03504 0,0.05057 0.02804,0.03227 -1.409458,0.919719 -1.038905,0.641374 -0.874437,0.574947 -1.726904,0.697485 -0.139676,0.02008 -0.408235,0.05951 -0.596798,0.08762 -0.188562,0.02811 -0.377125,0.05622 -0.419028,0.06247 -0.0419,0.0062 -0.544737,0.07438 -1.117408,0.151403 -2.753041,0.370302 -5.405273,0.652898 -7.52981,0.802304 -0.202531,0.01424 -0.442519,0.03126 -0.533308,0.03781 -0.09079,0.0066 -0.507914,0.02923 -0.926942,0.0504 -0.419028,0.02117 -0.853294,0.04432 -0.965034,0.05144 -0.278097,0.01773 -2.663441,0.04517 -2.679242,0.03082 z m 7.847256,-3.265678 c 0,-0.01225 0.110373,-0.175094 0.245273,-0.361888 0.798706,-1.105954 1.239736,-1.923221 1.368757,-2.536425 0.05969,-0.28369 0.05992,-0.777354 4.8e-4,-1.051018 -0.14041,-0.646591 -0.414211,-1.137302 -1.453996,-2.605879 -0.837184,-1.182428 -1.096046,-1.572387 -1.325888,-1.997369 -0.09933,-0.183674 -0.18061,-0.339791 -0.18061,-0.346926 0,-0.0071 -0.03843,-0.09684 -0.08539,-0.199355 -0.380069,-0.829588 -0.601578,-1.83408 -0.599502,-2.718596 0.0029,-1.252141 0.415023,-2.441974 1.250491,-3.610617 0.572826,-0.801263 1.389946,-1.604121 2.424616,-2.382298 2.078689,-1.563388 5.119683,-3.005772 8.448959,-4.007456 0.421749,-0.126892 0.521562,-0.142828 0.540168,-0.08624 0.0051,0.01551 -0.216008,0.169789 -0.491352,0.342841 -0.275344,0.173051 -0.572738,0.360351 -0.660875,0.416221 -0.08814,0.05587 -0.275833,0.174442 -0.417105,0.263493 -0.942133,0.59387 -2.166783,1.437539 -3.057971,2.106655 -2.323499,1.744513 -3.707616,3.170404 -4.35523,4.486677 -0.29885,0.607411 -0.389257,0.953209 -0.388412,1.485645 0.0014,0.859065 0.284044,1.484149 1.51023,3.339527 0.940684,1.423377 1.378962,2.328895 1.610214,3.32683 0.06158,0.265752 0.07078,0.358367 0.07189,0.723776 0.0014,0.461488 -0.03135,0.674576 -0.165675,1.0777 -0.09101,0.273136 -0.302791,0.699321 -0.514705,1.035778 -0.614633,0.975857 -1.890557,2.162405 -3.33616,3.10247 -0.304884,0.198264 -0.438226,0.258042 -0.438226,0.196458 z m -2.414703,-2.129148 c -0.0058,-0.01698 -0.307712,-0.331251 -0.67087,-0.69838 C 20.313536,30.5085 19.942608,30.128125 19.852409,30.030352 19.632901,29.792411 19.401397,29.544266 19.140261,29.267018 18.48359,28.569829 17.460362,27.390363 16.83923,26.614637 15.99034,25.554468 15.296751,24.586051 14.856676,23.846512 14.297699,22.907161 13.996277,22.213664 13.895638,21.6354 c -0.04772,-0.274194 -0.05378,-0.790966 -0.01236,-1.05462 0.205216,-1.306456 1.103713,-2.718594 2.818124,-4.429148 0.773134,-0.771397 1.990651,-1.86634 3.238824,-2.912756 0.167612,-0.140518 0.384745,-0.322809 0.482518,-0.405092 0.20161,-0.169667 1.449056,-1.196082 1.894911,-1.559158 0.162243,-0.132119 0.470422,-0.383068 0.684845,-0.557663 1.01442,-0.8260022 1.648859,-1.4172043 2.180235,-2.0316516 1.422594,-1.6449949 2.253793,-3.4618483 2.532802,-5.5362514 0.03602,-0.2678114 0.04614,-0.5123535 0.04623,-1.1174088 9.6e-5,-0.7854929 -0.0096,-0.9170403 -0.118779,-1.60167657 C 27.585593,0.06997777 27.589661,0 27.667975,0 c 0.05299,0 0.108043,0.05607839 0.236871,0.24125849 0.234975,0.33775939 0.343647,0.58969029 0.479313,1.11117561 0.519175,1.9956554 0.527534,3.8733595 0.02489,5.5922752 -0.316448,1.082179 -0.827875,2.0898469 -1.560102,3.0738727 -0.406551,0.546359 -0.871621,1.044573 -1.778592,1.905351 -3.243153,3.077974 -4.676903,4.494655 -5.602269,5.535574 -1.191918,1.340757 -1.923159,2.445602 -2.323,3.509863 -0.353379,0.940593 -0.349194,1.647114 0.01724,2.910117 0.132831,0.457837 0.348466,1.054402 0.544865,1.507395 0.438183,1.010667 1.305748,2.591285 2.053854,3.741924 0.63074,0.97012 0.873209,1.331689 1.081434,1.612624 0.403329,0.544167 0.546456,0.771087 0.525675,0.833429 -0.0075,0.02264 -0.01261,0.02243 -0.02059,-8.64e-4 z m 76.51775,-3.475476 c -0.02385,-0.02874 -0.03413,-0.157141 -0.0369,-0.460661 -0.0043,-0.477793 -0.0094,-0.489925 -0.205049,-0.489925 -0.07387,0 -0.111447,-0.01236 -0.12212,-0.04017 -0.02308,-0.06016 -0.01927,-0.07932 0.0245,-0.123088 0.03292,-0.03292 0.110371,-0.03991 0.442609,-0.03991 0.332227,0 0.409686,0.007 0.442609,0.03991 0.08415,0.08415 0.02718,0.163258 -0.117552,0.163258 -0.06264,0 -0.114316,0.01782 -0.147286,0.05079 -0.04645,0.04644 -0.05079,0.08465 -0.05079,0.446094 0,0.223926 -0.01139,0.416598 -0.02629,0.444424 -0.03228,0.06031 -0.156664,0.06598 -0.203725,0.0093 z m 0.789609,-0.0093 c -0.0156,-0.02914 -0.02629,-0.254779 -0.02629,-0.554769 0,-0.569055 0.0064,-0.589706 0.184711,-0.589706 0.122417,0 0.200481,0.07598 0.273956,0.266655 0.03229,0.0838 0.09176,0.226657 0.13215,0.317446 l 0.07343,0.165071 0.04564,-0.05603 c 0.02511,-0.03082 0.09386,-0.179384 0.152786,-0.330143 0.05893,-0.150761 0.130192,-0.294108 0.158364,-0.318551 0.0713,-0.06187 0.234785,-0.05841 0.299545,0.0063 0.04738,0.04738 0.05079,0.08465 0.05079,0.554769 0,0.455992 -0.0044,0.507978 -0.04644,0.546006 -0.06244,0.05651 -0.149005,0.05312 -0.181226,-0.0071 -0.01446,-0.02702 -0.0271,-0.149869 -0.02808,-0.273003 -9.59e-4,-0.123136 -0.01018,-0.245266 -0.02045,-0.271401 -0.01705,-0.04337 -0.02263,-0.04148 -0.06394,0.02157 -0.0249,0.038 -0.08711,0.172661 -0.138264,0.299253 -0.09982,0.247069 -0.13789,0.289255 -0.238251,0.264066 -0.05415,-0.01359 -0.08352,-0.06368 -0.187148,-0.319315 -0.06761,-0.166757 -0.13097,-0.298219 -0.140808,-0.292138 -0.03039,0.01878 -0.07279,0.259449 -0.07279,0.4131 0,0.08032 -0.01372,0.159759 -0.03047,0.17652 -0.04829,0.04829 -0.167395,0.03702 -0.197198,-0.01865 z"
       id="path1" /></g></svg>
