<?xml version="1.0" encoding="UTF-8" standalone="no"?>
<!-- Created with Inkscape (http://www.inkscape.org/) -->

<svg
   width="100mm"
   height="121.263mm"
   viewBox="0 0 100 121.263"
   version="1.1"
   id="svg1"
   xml:space="preserve"
   inkscape:version="1.4.4 (dcaf3e7d9e, 2026-05-05)"
   sodipodi:docname="linux.svg"
   xmlns:inkscape="http://www.inkscape.org/namespaces/inkscape"
   xmlns:sodipodi="http://sodipodi.sourceforge.net/DTD/sodipodi-0.dtd"
   xmlns="http://www.w3.org/2000/svg"
   xmlns:svg="http://www.w3.org/2000/svg"><sodipodi:namedview
     id="namedview1"
     pagecolor="#ffffff"
     bordercolor="#000000"
     borderopacity="0.25"
     inkscape:showpageshadow="2"
     inkscape:pageopacity="0.0"
     inkscape:pagecheckerboard="0"
     inkscape:deskcolor="#d1d1d1"
     inkscape:document-units="mm"
     showgrid="false"
     inkscape:zoom="0.61858947"
     inkscape:cx="632.89147"
     inkscape:cy="241.67886"
     inkscape:window-width="1299"
     inkscape:window-height="699"
     inkscape:window-x="0"
     inkscape:window-y="0"
     inkscape:window-maximized="1"
     inkscape:current-layer="layer1" /><defs
     id="defs1" /><g
     inkscape:label="Layer 1"
     inkscape:groupmode="layer"
     id="layer1"><path
       style="fill:#000000;stroke-width:0.896565"
       d="m 70.070963,121.03039 c -1.508344,-0.3541 -3.672866,-1.64414 -4.702526,-2.80267 -0.919713,-1.03482 -2.078819,-3.12271 -2.08375,-3.75344 -0.0018,-0.20879 -0.494168,-0.29653 -1.664669,-0.29653 -0.91429,0 -3.236042,-0.22685 -5.159442,-0.50412 -4.019721,-0.57948 -7.142598,-0.61326 -10.020544,-0.1084 -1.108978,0.19455 -3.297295,0.5785 -4.862919,0.85324 -2.334663,0.40969 -2.910589,0.59294 -3.202421,1.01897 -0.766043,1.11828 -2.222476,2.54194 -3.163627,3.09241 -3.463527,2.0258 -8.866126,1.79141 -14.271747,-0.61918 -3.501811,-1.5616 -5.77618,-2.25923 -8.658384,-2.65585 -7.7027174,-1.05999 -9.2401553,-1.49634 -10.8286256,-3.07336 -1.65927196,-1.64731 -1.87798888,-3.81447 -0.75227141,-7.45379 0.51327421,-1.65935 0.51137351,-1.31894 0.0442903,-7.931693 C 0.5724738,94.36323 0.94402805,93.062897 2.2120572,91.659344 2.9541168,90.837974 3.4909438,90.542637 7.5399637,88.728148 9.2473092,87.963038 9.409175,87.817973 11.38246,85.284416 l 2.060054,-2.644981 v -3.051341 c 0,-4.655475 0.923497,-8.535644 3.336682,-14.019437 C 18.722401,61.15288 22.742838,54.690909 26.385006,50.12943 31.19,44.111635 32.935333,40.442651 33.776257,34.591779 34.140029,32.060741 34.154204,31.206116 33.90408,26.882254 33.74936,24.20765 33.625374,21.165352 33.628539,20.121602 33.658216,10.360816 37.175842,3.8331863 43.73689,1.3636118 46.62936,0.27489017 48.417683,-0.00753125 52.370484,1.5141396e-4 58.338744,0.01175296 61.201214,1.0547713 64.594622,4.4543585 c 2.782568,2.7876361 4.189502,5.8780685 5.242706,11.5159625 0.264423,1.415511 0.431624,4.419639 0.561114,10.081679 0.207833,9.087875 0.320406,9.787133 2.169776,13.477428 1.211026,2.416511 2.660089,4.486669 6.516581,9.309703 6.678429,8.352233 10.344517,15.2043 11.862565,22.171682 0.64159,2.944713 0.583215,8.662418 -0.114769,11.241297 -0.279504,1.032699 -0.481357,1.894826 -0.448561,1.915833 0.03281,0.02098 0.455419,0.276159 0.93917,0.566987 1.818286,1.093154 2.453404,2.239358 3.417775,6.168072 0.663718,2.703886 1.623114,4.822504 2.837215,6.265336 1.063818,1.264255 2.186559,3.454362 2.375017,4.632912 0.229979,1.43818 -0.391808,2.88157 -1.777681,4.12664 -0.670675,0.60253 -2.692177,1.8078 -4.976086,2.96686 -5.034598,2.555 -6.131025,3.30725 -8.685041,5.95863 -2.341952,2.43124 -4.247134,3.90628 -6.469735,5.00902 -2.565323,1.27279 -5.620752,1.72035 -7.97366,1.16799 z m 5.325683,-2.24977 c 2.708737,-0.79612 4.452905,-1.95059 7.580122,-5.01735 1.633854,-1.60227 3.47547,-3.27213 4.092458,-3.7108 0.616998,-0.43866 3.03101,-1.77572 5.364462,-2.97122 4.292079,-2.19897 5.768999,-3.27262 6.051802,-4.39943 0.324915,-1.29456 -0.644809,-3.249145 -3.182087,-6.413875 -0.952537,-1.188082 -1.11954,-1.619545 -2.249507,-5.811791 -1.034896,-3.839559 -2.506499,-5.218753 -5.568413,-5.218753 -1.455823,0 -1.633101,0.05711 -2.275552,0.732726 -1.518278,1.596728 -5.209793,3.299949 -7.152227,3.299949 -2.544773,0 -5.010406,-2.610464 -5.433352,-5.752492 -0.18722,-1.39085 -0.500812,-1.428165 -1.723833,-0.205143 -1.584086,1.584086 -2.453808,4.704659 -2.751297,9.871699 -0.229153,3.979895 -0.50976,5.571835 -1.777116,10.08168 -1.685694,5.9985 -2.008879,8.36499 -1.427959,10.45621 0.563957,2.03015 3.08169,4.60359 5.066791,5.17893 1.206606,0.34969 3.998678,0.28731 5.385708,-0.12034 z m -42.484587,-1.42045 c 3.26527,-0.96968 4.998975,-3.24636 5.052948,-6.6355 0.03685,-2.3128 -1.455725,-5.03631 -5.517701,-10.06823 -2.615834,-3.240462 -3.163716,-4.09911 -6.059458,-9.49659 -2.196036,-4.093269 -2.844243,-5.096382 -4.155173,-6.430183 -1.247722,-1.269499 -1.804426,-1.654932 -2.830347,-1.959594 -2.77085,-0.822858 -3.76064,-0.330581 -6.6245,3.29474 -2.300047,2.911593 -1.998783,2.69926 -7.1032834,5.006447 -1.7240129,0.77924 -2.7344322,1.801673 -3.1494608,3.186901 -0.2374014,0.792393 -0.2112844,1.604268 0.1472248,4.576281 l 0.435829,3.612998 -0.532658,1.75366 c -1.142259,3.76065 -1.0891555,5.55258 0.1987684,6.70673 0.9866065,0.88412 2.5978137,1.28977 6.8446066,1.72323 5.6568114,0.57739 7.1440234,0.9594 11.3167154,2.90684 4.421363,2.06348 8.87988,2.74187 11.976489,1.82227 z M 53.9902,107.90011 c 3.159959,-0.66472 6.405048,-2.01368 9.349581,-3.88654 1.200383,-0.7635 1.403195,-1.00717 1.708287,-2.05244 0.913698,-3.130391 1.124803,-4.334665 1.450068,-8.271973 0.418713,-5.068516 0.8582,-7.365353 1.780918,-9.307321 0.743225,-1.564209 2.406486,-3.290858 3.556106,-3.691622 0.478291,-0.166735 0.70028,-0.404566 0.703848,-0.754074 0.0072,-0.694022 0.774973,-2.317996 1.32835,-2.809259 0.248429,-0.220546 0.949193,-0.534057 1.557261,-0.696685 1.609047,-0.43036 3.796144,0.03389 6.721249,1.426632 3.510946,1.671698 4.858106,3.02439 4.858106,4.878019 0,0.667815 0.09285,0.842044 0.448722,0.842044 0.918468,0 0.817407,-1.77483 -0.194277,-3.411768 -0.726988,-1.176293 -4.342232,-3.645333 -6.249969,-4.268446 -0.333773,-0.109022 -0.382905,-0.273676 -0.237222,-0.795055 0.36908,-1.320837 0.148848,-6.253107 -0.364561,-8.164583 -0.901056,-3.354711 -2.642113,-6.867182 -4.870569,-9.826069 -1.196519,-1.588704 -3.177577,-3.660512 -3.500179,-3.660512 -0.454639,0 -0.165631,0.510441 1.078424,1.90468 1.721959,1.929828 2.808578,3.602898 4.047836,6.232414 1.334707,2.832068 1.767783,4.490237 1.938552,7.422362 0.105633,1.813705 0.04008,2.840415 -0.270359,4.235873 L 78.420588,75.087698 77.701095,74.9438 c -0.395726,-0.07917 -1.005031,-0.143899 -1.354027,-0.143899 -0.587752,0 -0.656976,-0.109318 -0.938919,-1.482604 -0.749492,-3.65064 -3.034548,-9.68963 -5.138695,-13.580622 -2.785635,-5.151184 -6.76414,-15.184208 -8.654063,-21.823869 l -0.270081,-0.948861 -1.024468,0.98181 c -0.563455,0.540001 -1.755509,1.320621 -2.649008,1.734709 -1.607863,0.74517 -2.525272,1.199146 -5.558807,2.750749 -1.859798,0.951255 -3.15901,1.280223 -5.079953,1.286266 -2.52764,0.0081 -2.732119,-0.09516 -7.472299,-3.767768 -0.848051,-0.657047 -1.621966,-1.197335 -1.719817,-1.200643 -0.09785,-0.0036 -0.179582,0.447672 -0.181626,1.002162 -0.01363,3.700104 -2.568532,11.219366 -7.354851,21.645964 -3.211915,6.996879 -4.479774,11.223643 -4.928791,16.431535 l -0.178578,2.071306 -0.768419,-1.30468 c -1.307496,-2.219993 -1.594163,-3.518335 -1.57131,-7.116481 0.026,-4.098663 0.537993,-5.887426 3.345226,-11.688199 1.122131,-2.318749 1.980672,-4.275474 1.907862,-4.348284 -0.165066,-0.165066 -2.204383,3.268848 -3.646229,6.139746 -2.408513,4.795625 -3.406318,8.301802 -3.406318,11.969361 0,5.416926 1.75507,8.277613 7.353694,11.986198 6.411145,4.246815 9.790019,8.236625 9.828885,11.606085 0.01408,1.221901 -0.06043,1.428757 -0.784171,2.175945 -0.617572,0.637609 -1.063864,0.862014 -1.959245,0.985164 l -1.159491,0.15947 0.984231,1.22282 c 0.541328,0.67254 1.335218,1.7052 1.764206,2.29478 1.294854,1.77959 5.361698,3.65348 9.235393,4.25542 1.794635,0.27887 5.518247,0.1151 7.668774,-0.33727 z M 50.991604,41.177924 c 0.8725,-0.402127 2.046722,-1.047125 2.609379,-1.433338 0.562648,-0.386204 1.911762,-1.148418 2.998013,-1.693799 2.206688,-1.107929 3.981446,-2.597715 4.464847,-3.747908 0.343169,-0.816556 0.437541,-2.236203 0.142885,-2.149541 -0.09785,0.02878 -0.538476,-0.282202 -0.979183,-0.691063 -0.465532,-0.431895 -1.845416,-1.159268 -3.293243,-1.735948 -1.370587,-0.545909 -3.081546,-1.369708 -3.802133,-1.830668 -2.005776,-1.283083 -3.667164,-1.795245 -5.861882,-1.80708 -2.419093,-0.013 -3.985095,0.661019 -6.09427,2.623178 -0.825306,0.767782 -2.176769,1.855171 -3.003249,2.41643 -1.644219,1.116565 -2.191912,2.016375 -1.997833,3.282306 0.149377,0.974387 1.623831,2.661049 3.357311,3.840515 0.733265,0.49892 1.866953,1.34933 2.519293,1.889815 2.062921,1.709166 2.779214,1.964435 5.218748,1.859797 1.762879,-0.07558 2.411418,-0.218986 3.721317,-0.822696 z M 43.59344,38.677629 c -0.848041,-0.290182 -2.022262,-0.815506 -2.609369,-1.167371 -1.588775,-0.952206 -3.55824,-2.875328 -3.55824,-3.474529 0,-0.281279 0.06769,-0.511418 0.150354,-0.511418 0.08266,0 0.922726,0.733668 1.866728,1.630385 3.83092,3.638994 7.158662,4.205712 11.923078,2.030521 2.002593,-0.91429 5.362873,-3.213467 5.904389,-4.039929 0.351211,-0.536011 1.030457,-0.790061 1.030457,-0.385406 0,0.846007 -2.703653,2.858732 -6.087126,4.531524 -4.139116,2.046382 -5.875152,2.325554 -8.620271,1.386223 z m 0,-9.667424 c -0.308078,-0.207133 -0.294037,-0.286371 0.104647,-0.590549 0.589724,-0.449941 1.793084,-0.465478 1.793084,-0.02313 0,0.180487 -0.186808,0.381865 -0.415127,0.44752 -0.228319,0.06563 -0.575254,0.183724 -0.770956,0.262389 -0.195702,0.07863 -0.515946,0.03541 -0.711648,-0.0962 z m 5.504431,-0.136062 c -0.429992,-0.187875 -0.717243,-0.446032 -0.638345,-0.573694 0.217005,-0.351122 1.387954,-0.27798 1.908535,0.119207 0.398559,0.304079 0.412635,0.383326 0.104647,0.589411 -0.429526,0.287402 -0.402038,0.290101 -1.374837,-0.134924 z m -9.817236,0.530551 c 0.646154,-0.476722 0.708725,-0.60467 0.414903,-0.848509 -0.626421,-0.519891 -1.154076,-2.58337 -1.012168,-3.958297 0.252105,-2.442629 1.650513,-3.419745 2.851506,-1.992444 0.543883,0.646364 1.109705,2.465158 1.109705,3.567054 0,0.425169 0.07477,0.415414 1.218456,-0.159033 l 1.218458,-0.611995 -0.14987,-1.772942 c -0.223773,-2.647225 -1.46885,-5.087974 -2.999177,-5.879337 -0.37818,-0.195565 -1.138188,-0.355574 -1.688912,-0.355574 -0.872824,0 -1.1289,0.133169 -1.995717,1.037821 -2.368804,2.472221 -2.631784,7.158562 -0.581045,10.354357 0.416552,0.649149 0.778881,1.180274 0.805168,1.180274 0.02627,0 0.390194,-0.252616 0.808693,-0.561375 z m 21.413079,-1.783751 c 1.422749,-3.751191 -0.08239,-8.469703 -3.180052,-9.969256 -2.143775,-1.037781 -4.947046,-0.364867 -6.549547,1.572187 -0.909466,1.099337 -1.67749,3.475257 -1.67749,5.189421 0,1.224268 0.03254,1.290138 0.79623,1.609199 0.437927,0.182979 1.131787,0.406385 1.541902,0.496463 l 0.745682,0.163785 v -1.044068 c 0,-1.546753 0.632231,-3.14465 1.570028,-3.968041 1.055561,-0.926799 1.63632,-0.906727 2.575427,0.08901 1.409408,1.494415 1.706772,4.386468 0.604329,5.877598 -0.286919,0.388087 -0.479931,0.747349 -0.428917,0.798364 0.05101,0.05101 0.674217,0.351713 1.384879,0.668201 1.168277,0.520285 1.331434,0.540619 1.70228,0.212145 0.225585,-0.199809 0.637449,-0.962561 0.915249,-1.695009 z"
       id="path1" /></g></svg>
