<?xml version="1.0" encoding="UTF-8" standalone="no"?>
<!-- Created with Inkscape (http://www.inkscape.org/) -->

<svg
   width="90.250999mm"
   height="25mm"
   viewBox="0 0 90.250999 25"
   version="1.1"
   id="svg1"
   xml:space="preserve"
   inkscape:version="1.4.4 (dcaf3e7d9e, 2026-05-05)"
   sodipodi:docname="logo.svg"
   xmlns:inkscape="http://www.inkscape.org/namespaces/inkscape"
   xmlns:sodipodi="http://sodipodi.sourceforge.net/DTD/sodipodi-0.dtd"
   xmlns="http://www.w3.org/2000/svg"
   xmlns:svg="http://www.w3.org/2000/svg"><sodipodi:namedview
     id="namedview1"
     pagecolor="#ffffff"
     bordercolor="#000000"
     borderopacity="0.25"
     inkscape:showpageshadow="2"
     inkscape:pageopacity="0.0"
     inkscape:pagecheckerboard="0"
     inkscape:deskcolor="#d1d1d1"
     inkscape:document-units="mm"
     inkscape:zoom="0.61858947"
     inkscape:cx="263.50271"
     inkscape:cy="141.45084"
     inkscape:window-width="1299"
     inkscape:window-height="699"
     inkscape:window-x="0"
     inkscape:window-y="0"
     inkscape:window-maximized="1"
     inkscape:current-layer="layer1" /><defs
     id="defs1" /><g
     inkscape:label="Layer 1"
     inkscape:groupmode="layer"
     id="layer1"><path
       style="fill:#1fda71;stroke-width:1.11578"
       d="m 52.232065,24.282706 c -0.441491,-0.673796 -0.410497,-0.823109 0.578551,-2.787099 l 1.045033,-2.075155 -2.651868,-5.34283 C 48.335829,8.2994309 48.143299,7.5630405 49.302047,6.8038103 c 1.359187,-0.8905795 1.968932,-0.27476 4.263847,4.3063287 2.515939,5.022297 2.20211,5.011642 4.575913,0.155472 2.18209,-4.4639765 2.84172,-5.1735435 4.195727,-4.5133273 1.42748,0.6960327 1.102499,1.7253144 -3.149807,9.9763233 -2.133835,4.140402 -4.096744,7.694062 -4.362021,7.897021 -0.806656,0.61717 -2.074394,0.449547 -2.593641,-0.342922 z m -7.812728,-3.447739 c -3.576319,-0.707749 -3.963469,-1.710586 -4.083231,-10.576824 -0.122855,-9.09522 0.05426,-10.06162771 1.843997,-10.06162771 1.55753,0 1.64799,0.46179767 1.652708,8.43690101 0.0051,8.5962857 0.03615,8.7261517 2.16039,9.0300107 1.721904,0.246308 2.263497,0.658364 2.263497,1.722123 0,1.39105 -1.42072,1.927672 -3.837361,1.449417 z m 35.720682,-0.255 c -3.026768,-1.039446 -5.395506,-4.745153 -4.883744,-7.640255 0.913799,-5.1694606 6.074255,-8.0012349 10.64046,-5.8388931 8.6093,4.0769701 3.269873,16.5790321 -5.756716,13.4791481 z m 4.652354,-3.25934 c 1.994082,-1.215806 2.672408,-3.589465 1.598182,-5.592481 -1.93431,-3.6067373 -7.726608,-2.1096216 -7.726608,1.997058 0,3.167322 3.481022,5.209573 6.128426,3.595423 z M 21.560744,20.397716 C 20.757842,19.594814 20.873935,1.600274 21.687265,0.78695086 c 1.900914,-1.90091536 2.952159,-0.33025875 2.952159,4.41081044 0,4.8924907 -0.263059,4.9138027 5.2682,-0.4266173 4.789658,-4.62440351 5.291868,-4.94358259 6.47475,-4.11506259 1.425669,0.99857549 0.964393,1.82769799 -3.193164,5.73953309 -2.117105,1.991985 -3.810906,3.7276095 -3.764002,3.8569385 0.04691,0.12933 1.77908,2.037118 3.849282,4.239502 3.848358,4.094097 4.384725,5.040332 3.409744,6.01532 -1.095257,1.095246 -2.007168,0.531489 -6.150356,-3.802244 l -3.995279,-4.179027 -0.949588,0.799016 -0.949587,0.79903 v 2.904824 c 0,3.231435 -0.27786,3.83266 -1.771296,3.83266 -0.463911,0 -1.052234,-0.208762 -1.307384,-0.463918 z m 43.835357,0.0414 C 64.580725,19.456648 65.11883,9.8906735 66.058716,8.6596036 c 2.093844,-2.7425122 8.176992,-3.2547542 8.176992,-0.688557 0,1.3571415 -0.459934,1.6723485 -2.440181,1.6723485 -3.141157,0 -3.464141,0.6041489 -3.464141,6.4797579 0,2.740761 -0.11333,4.143247 -0.354259,4.384188 -0.48919,0.489179 -2.154956,0.44515 -2.581026,-0.06828 z M 0.79168367,19.220516 C -0.81259906,18.096828 -0.19044643,17.242657 4.6295751,13.951394 6.6948432,12.541156 8.4509742,11.279949 8.5320878,11.148712 8.7448542,10.804439 7.7594314,9.9813861 4.4171323,7.7117736 0.5936612,5.1154169 0.13650181,4.6895027 0.13650181,3.7237644 0.13650181,1.3476063 1.72084,1.7029366 6.8160009,5.2218397 15.626659,11.306806 15.581439,10.773409 7.727306,15.971329 2.0780927,19.710018 1.7260261,19.874952 0.79168367,19.220516 Z"
       id="path14" /></g></svg>
