<?xml version="1.0" encoding="UTF-8" standalone="no"?>
<!-- Created with Inkscape (http://www.inkscape.org/) -->

<svg
   width="100mm"
   height="123.019mm"
   viewBox="0 0 100 123.019"
   version="1.1"
   id="svg1"
   xml:space="preserve"
   inkscape:version="1.4.4 (dcaf3e7d9e, 2026-05-05)"
   sodipodi:docname="macos.svg"
   xmlns:inkscape="http://www.inkscape.org/namespaces/inkscape"
   xmlns:sodipodi="http://sodipodi.sourceforge.net/DTD/sodipodi-0.dtd"
   xmlns="http://www.w3.org/2000/svg"
   xmlns:svg="http://www.w3.org/2000/svg"><sodipodi:namedview
     id="namedview1"
     pagecolor="#ffffff"
     bordercolor="#000000"
     borderopacity="0.25"
     inkscape:showpageshadow="2"
     inkscape:pageopacity="0.0"
     inkscape:pagecheckerboard="0"
     inkscape:deskcolor="#d1d1d1"
     inkscape:document-units="mm"
     showgrid="false"
     inkscape:zoom="0.43740881"
     inkscape:cx="540.68413"
     inkscape:cy="780.73416"
     inkscape:window-width="1299"
     inkscape:window-height="699"
     inkscape:window-x="0"
     inkscape:window-y="0"
     inkscape:window-maximized="1"
     inkscape:current-layer="layer1" /><defs
     id="defs1" /><g
     inkscape:label="Layer 1"
     inkscape:groupmode="layer"
     id="layer1"><path
       style="fill:#000000;stroke-width:0.908712"
       d="M 30.034877,122.95377 C 24.96233,121.97552 20.369374,118.08346 14.362226,109.6728 7.3534054,99.859677 2.8863149,89.112189 0.80704616,77.060027 -0.03880089,72.157191 -0.25366578,64.722893 0.32433849,60.357996 1.8561629,48.790105 6.9438491,40.091971 15.333339,34.697967 c 3.902935,-2.509371 9.286471,-4.278796 13.872075,-4.559368 4.087122,-0.250073 6.90879,0.422377 15.856338,3.77883 2.779559,1.042692 3.701138,1.279693 5.289457,1.360341 2.067537,0.104966 2.618725,-0.05307 10.578922,-3.032907 4.619327,-1.729221 7.016454,-2.252201 10.878424,-2.373335 9.470694,-0.297058 18.158214,3.435937 23.482346,10.090279 l 1.543756,1.929458 -1.845984,1.390993 c -3.584577,2.701054 -6.740432,6.413242 -8.596912,10.112407 -4.293299,8.554676 -3.557016,19.157761 1.893346,27.265678 2.158836,3.211478 7.314129,7.608788 10.693065,9.120857 C 99.540174,90.032695 100,90.33446 100,90.451793 c 0,0.117333 -0.476601,1.480364 -1.059104,3.028973 -2.452903,6.521114 -4.833174,10.819584 -9.873433,17.830184 -5.9696,8.30323 -10.681916,11.55296 -16.75251,11.55296 -2.791435,0 -4.625415,-0.45553 -9.220952,-2.29035 -5.28375,-2.10959 -6.456688,-2.3686 -10.699136,-2.3626 -4.346486,0.006 -5.849686,0.33046 -10.935437,2.35923 -2.118052,0.84492 -4.507501,1.70452 -5.309884,1.9102 -1.537331,0.39409 -5.096864,0.66966 -6.114667,0.47338 z M 49.753295,26.186284 c 0.0055,-4.054793 1.230077,-8.397507 3.478994,-12.339202 1.300184,-2.278835 2.292625,-3.586965 4.284157,-5.6468928 C 61.506581,4.0730168 67.990294,0.73267609 73.131949,0.15525522 L 74.514417,0 74.514381,2.4665072 C 74.514163,15.424028 63.950652,27.532096 51.974114,28.302523 l -2.223982,0.143063 z"
       id="path1" /></g></svg>
