<?xml version="1.0" encoding="UTF-8" standalone="no"?>
<!-- Created with Inkscape (http://www.inkscape.org/) -->

<svg
   width="100mm"
   height="100.02mm"
   viewBox="0 0 100 100.02"
   version="1.1"
   id="svg1"
   xml:space="preserve"
   inkscape:version="1.4.4 (dcaf3e7d9e, 2026-05-05)"
   sodipodi:docname="python.svg"
   xmlns:inkscape="http://www.inkscape.org/namespaces/inkscape"
   xmlns:sodipodi="http://sodipodi.sourceforge.net/DTD/sodipodi-0.dtd"
   xmlns="http://www.w3.org/2000/svg"
   xmlns:svg="http://www.w3.org/2000/svg"><sodipodi:namedview
     id="namedview1"
     pagecolor="#ffffff"
     bordercolor="#000000"
     borderopacity="0.25"
     inkscape:showpageshadow="2"
     inkscape:pageopacity="0.0"
     inkscape:pagecheckerboard="0"
     inkscape:deskcolor="#d1d1d1"
     inkscape:document-units="mm"
     inkscape:zoom="0.32"
     inkscape:cx="448.4375"
     inkscape:cy="385.9375"
     inkscape:window-width="1299"
     inkscape:window-height="699"
     inkscape:window-x="0"
     inkscape:window-y="0"
     inkscape:window-maximized="1"
     inkscape:current-layer="layer1" /><defs
     id="defs1" /><g
     inkscape:label="Layer 1"
     inkscape:groupmode="layer"
     id="layer1"><path
       style="fill:#000000;stroke-width:0.0984509"
       d="M 49.008653,100.00766 C 45.529746,99.96374 42.128201,99.643004 39.357694,99.097645 33.510042,97.946572 29.472996,95.736874 27.3131,92.504969 c -0.801046,-1.198624 -1.349206,-2.608538 -1.577707,-4.057995 -0.136808,-0.867825 -0.127452,-0.02934 -0.137477,-12.320927 -0.0094,-11.475797 -0.0042,-12.284028 0.08468,-13.167501 0.467217,-4.646367 2.794152,-8.005348 6.853399,-9.893035 1.67872,-0.780662 3.419934,-1.22945 5.597424,-1.442707 0.232194,-0.02274 3.675428,-0.03487 13.388913,-0.04718 12.000205,-0.0152 13.111703,-0.02018 13.506132,-0.06046 1.788199,-0.182617 3.177767,-0.51564 4.540876,-1.088263 1.165818,-0.489744 2.263898,-1.177472 3.221569,-2.017667 2.671969,-2.344203 4.300945,-6.143938 4.48061,-10.451428 0.01371,-0.32882 0.02493,-3.246378 0.02523,-6.564314 l 5.91e-4,-5.972422 4.682213,0.0086 c 5.093512,0.0094 4.729086,-4.92e-4 5.580885,0.152095 1.93485,0.346712 3.837938,1.264373 5.416751,2.611934 3.829315,3.268423 6.134614,8.964346 6.81176,16.830435 0.261711,3.040248 0.281121,6.569264 0.05209,9.468621 -0.716673,9.072081 -3.829219,15.176761 -9.154785,17.955393 -1.848836,0.964635 -3.925924,1.499376 -6.238608,1.606113 -0.374489,0.01728 -6.492042,0.02653 -17.654352,0.0267 l -17.081284,2.95e-4 v 1.719199 1.719199 h 12.178402 12.17845 l -0.0086,6.049758 c -0.0094,6.591518 -4.92e-4,6.186609 -0.151958,6.909356 -0.444562,2.120714 -1.829637,3.998218 -4.034838,5.469328 -0.592924,0.395544 -1.026132,0.645687 -1.719199,0.992699 -3.253752,1.629116 -7.809649,2.623451 -13.532181,2.953429 -1.275092,0.07352 -3.642411,0.136706 -4.6757,0.124786 -0.250716,-0.003 -0.672702,-0.008 -0.937745,-0.0113 z m 15.340744,-7.747069 c 0.515987,-0.08723 1.137022,-0.32749 1.586732,-0.613857 0.745966,-0.475014 1.366793,-1.219776 1.696712,-2.035421 0.479664,-1.185855 0.438886,-2.453257 -0.115409,-3.586847 -0.662947,-1.355799 -1.95185,-2.260867 -3.466842,-2.434419 -0.99867,-0.114402 -2.066728,0.150758 -2.917473,0.724304 -0.483142,0.325719 -0.862327,0.704904 -1.188047,1.188046 -1.143477,1.696129 -0.951278,3.987776 0.457333,5.452907 1.049874,1.091999 2.456679,1.557234 3.946994,1.305287 z M 13.739025,74.611209 C 13.170451,74.572654 12.827252,74.535624 12.446053,74.4717 9.4951063,73.976857 6.9015559,72.292969 4.8637411,69.548808 3.4681542,67.669484 2.3423611,65.275068 1.5324675,62.463625 0.78852911,59.881132 0.30871579,56.923789 0.10400287,53.659242 0.01811823,52.289648 3.9313229e-4,51.643679 6.2199253e-6,49.869189 -3.8758344e-4,48.08213 0.01774609,47.428406 0.10366912,46.131233 0.65556229,37.799297 3.145948,31.927654 7.500416,28.691744 c 2.1897038,-1.627221 4.840616,-2.547667 7.836967,-2.72114 0.311817,-0.01805 6.151163,-0.02694 17.706448,-0.02694 H 50.285029 V 24.22447 22.505271 H 38.11976 25.954492 l 0.0083,-6.101854 c 0.009,-6.6516252 -5.91e-4,-6.209431 0.150345,-6.9526635 0.430053,-2.1181674 1.856087,-4.0293851 4.103462,-5.4995969 2.696454,-1.7639952 6.591089,-2.9459023 11.641784,-3.53293951 3.742118,-0.43494234 8.48406,-0.53805097 12.620485,-0.27441912 5.982504,0.38128955 10.777046,1.58484113 14.105247,3.54077423 3.347578,1.967321 5.29943,4.6977566 5.728204,8.0131528 0.09551,0.738519 0.09702,0.96283 0.08751,13.008641 -0.01007,12.761103 -0.0013,11.937839 -0.13756,12.959114 -0.547072,4.101373 -2.592188,7.150554 -6.024958,8.982958 -1.525876,0.814508 -3.332578,1.382437 -5.227571,1.643264 -1.115554,0.153545 0.02241,0.140776 -14.326659,0.160761 -7.220636,0.01006 -13.198759,0.02557 -13.28472,0.03447 -0.08596,0.0089 -0.337979,0.03383 -0.560041,0.05539 -3.877083,0.376514 -6.923748,1.933834 -9.042257,4.621999 -1.495692,1.897875 -2.498908,4.367458 -2.899368,7.137281 -0.164042,1.134606 -0.154209,0.665502 -0.163663,7.808028 l -0.0086,6.51863 -4.434062,-0.0045 c -2.438735,-0.0025 -4.486812,-0.0081 -4.551281,-0.0125 z M 37.174252,16.382523 c 0.862868,-0.145837 1.652709,-0.551755 2.296444,-1.180199 0.772401,-0.754052 1.230339,-1.741566 1.303186,-2.810234 0.151515,-2.222725 -1.334681,-4.1685704 -3.520981,-4.6099446 -0.394381,-0.079618 -1.22163,-0.085128 -1.620137,-0.010791 -1.76278,0.328829 -3.120965,1.6586449 -3.508707,3.4354186 -0.05089,0.233187 -0.05826,0.342784 -0.05826,0.866086 0,0.526063 0.0072,0.632464 0.05934,0.872624 0.293591,1.353326 1.126929,2.435864 2.344867,3.046077 0.829285,0.415488 1.761629,0.55028 2.704254,0.390963 z"
       id="path1" /></g></svg>
