<?xml version="1.0" encoding="UTF-8" standalone="no"?>
<!-- Created with Inkscape (http://www.inkscape.org/) -->

<svg
   width="200mm"
   height="93.193001mm"
   viewBox="0 0 200 93.193001"
   version="1.1"
   id="svg1"
   xml:space="preserve"
   inkscape:version="1.4.4 (dcaf3e7d9e, 2026-05-05)"
   sodipodi:docname="saps4hana.svg"
   xmlns:inkscape="http://www.inkscape.org/namespaces/inkscape"
   xmlns:sodipodi="http://sodipodi.sourceforge.net/DTD/sodipodi-0.dtd"
   xmlns="http://www.w3.org/2000/svg"
   xmlns:svg="http://www.w3.org/2000/svg"><sodipodi:namedview
     id="namedview1"
     pagecolor="#ffffff"
     bordercolor="#000000"
     borderopacity="0.25"
     inkscape:showpageshadow="2"
     inkscape:pageopacity="0.0"
     inkscape:pagecheckerboard="0"
     inkscape:deskcolor="#d1d1d1"
     inkscape:document-units="mm"
     showgrid="false"
     inkscape:zoom="0.61858947"
     inkscape:cx="492.24892"
     inkscape:cy="388.78774"
     inkscape:window-width="1299"
     inkscape:window-height="699"
     inkscape:window-x="0"
     inkscape:window-y="0"
     inkscape:window-maximized="1"
     inkscape:current-layer="layer1" /><defs
     id="defs1" /><g
     inkscape:label="Layer 1"
     inkscape:groupmode="layer"
     id="layer1"><path
       style="fill:#000000;stroke-width:0.81047"
       d="M 0,46.771561 V 0.34997255 l 32.433588,-0.1168 c 72.311512,-0.260436 147.693442,-0.313578 147.693442,-0.10412 0,0.11634 -0.1367,0.211524 -0.30379,0.211524 -0.16708,0 -0.33595,0.0892 -0.37526,0.1982 -0.0393,0.109 -0.47583,0.51912405 -0.97004,0.91135805 -0.49421,0.392236 -1.74867,1.385588 -2.78768,2.207446 -1.03902,0.821866 -2.75759,2.202088 -3.81905,3.067176 -1.06147,0.865088 -2.7352,2.219084 -3.71942,3.008888 -0.98421,0.7898044 -2.09392,1.6863464 -2.46603,1.9923224 -0.37209,0.305978 -3.42669,2.758168 -6.78799,5.44932 -3.36129,2.69115 -6.1597,4.949964 -6.21867,5.019582 -0.059,0.06962 -0.65584,0.543372 -1.32638,1.052794 -0.67055,0.509412 -1.44252,1.142666 -1.71549,1.40722 -0.27299,0.264552 -0.88232,0.762636 -1.35408,1.106842 -0.85516,0.623948 -2.90576,2.247102 -3.10934,2.461196 -0.059,0.062 -0.54146,0.445516 -1.07219,0.85221 -0.53072,0.406694 -1.01321,0.790734 -1.07218,0.853424 -0.059,0.06266 -0.4719,0.385858 -0.91763,0.718158 -0.44571,0.332294 -0.97645,0.773408 -1.1794,0.980248 -0.20294,0.20684 -0.75498,0.658134 -1.22674,1.002884 -0.47176,0.344742 -0.96618,0.728346 -1.09871,0.852454 -0.32982,0.308854 -1.38968,1.165164 -4.90553,3.963418 -1.65116,1.314164 -3.09861,2.509892 -3.21655,2.657186 -0.11794,0.1473 -0.32144,0.30759 -0.45222,0.35621 -0.13078,0.04862 -0.66151,0.440442 -1.1794,0.870714 -0.51789,0.430278 -2.2477,1.829482 -3.84401,3.109336 -1.59632,1.279862 -3.04377,2.449072 -3.21656,2.598254 -0.1728,0.14918 -1.23088,0.999486 -2.35131,1.889576 -1.12043,0.8901 -2.23079,1.78126 -2.46747,1.98036 -0.23667,0.1991 -1.10514,0.88396 -1.92993,1.52191 -0.82479,0.63796 -1.64436,1.29092 -1.82127,1.45105 -0.1769,0.16012 -1.19013,0.98275 -2.2516,1.82807 -2.33233,1.85739 -3.96309,3.18702 -4.35248,3.54875 -0.1587,0.14742 -0.35402,0.26888 -0.43405,0.26991 -0.08,8.1e-4 -0.48325,0.31641 -0.89604,0.70088 -0.4128,0.38446 -1.18445,1.03497 -1.71479,1.44558 -1.35985,1.05286 -1.68843,1.31507 -2.44373,1.9501 -0.59864,0.50332 -3.372888,2.73276 -4.98027,4.00224 -0.339952,0.26849 -1.631306,1.30539 -2.869682,2.30421 -1.238374,0.99882 -4.181524,3.36701 -6.540324,5.26263 -2.358808,1.89561 -5.060714,4.06913 -6.004236,4.83004 -0.943524,0.76091 -3.628084,2.9254 -5.965691,4.80999 -2.337606,1.88458 -4.380178,3.54725 -4.539048,3.69481 -0.15888,0.14756 -1.305433,1.04027 -2.547923,1.98379 -1.333138,1.01237 -2.285246,1.89128 -2.322934,2.14438 -0.0635,0.42643 -0.248948,0.42917 -32.711888,0.48317 L 0,93.193163 Z m 51.547604,14.183212 c 0.64183,-0.42054 3.133816,-5.66845 3.133816,-6.59954 0,-0.12836 0.13872,-0.53746 0.308258,-0.90911 0.16954,-0.37164 0.454594,-1.03874 0.63345,-1.48244 l 0.325194,-0.80673 8.104854,0.0562 8.104855,0.0562 0.704642,1.7155 c 0.387552,0.94352 0.797662,1.93889 0.911356,2.21193 0.1137,0.27305 0.206716,0.58849 0.206716,0.70099 0,2.26142 2.950299,5.55733 4.974577,5.55733 3.603636,0 5.08948,-2.90304 3.512108,-6.86197 -1.178422,-2.95764 -1.517318,-3.76575 -1.61871,-3.85987 -0.06352,-0.059 -0.240872,-0.49321 -0.394106,-0.96497 -0.241108,-0.74229 -0.571434,-1.58212 -1.349506,-3.430986 -0.09926,-0.23588 -0.369988,-0.923442 -0.6016,-1.527916 -0.231612,-0.604472 -0.611662,-1.521188 -0.844556,-2.03715 -0.232894,-0.51596 -0.618968,-1.468846 -0.857943,-2.117514 -0.238976,-0.648678 -0.835796,-2.144368 -1.326264,-3.323776 -1.85452,-4.459458 -4.607444,-11.28571 -5.2404,-12.994286 -1.259961,-3.401098 -3.089269,-4.890882 -6.051619,-4.928406 -3.690916,-0.04676 -4.741462,1.013818 -7.249544,7.318718 -0.77179,1.940152 -1.485378,3.720544 -1.585748,3.956424 -0.10038,0.235888 -0.595418,1.490342 -1.100104,2.787686 -0.504688,1.297344 -1.034898,2.648292 -1.178248,3.002112 -0.14334,0.353826 -0.51497,1.270542 -0.825824,2.03716 -0.310852,0.766608 -0.56491,1.47239 -0.56457,1.568406 3.38e-4,0.096 -0.22881,0.676144 -0.50922,1.289184 -0.28041,0.61303 -0.73715,1.788934 -1.01498,2.61311 -0.27783,0.824174 -0.56351,1.546742 -0.634848,1.60572 -0.07134,0.059 -0.399034,0.830942 -0.728218,1.715494 -0.329184,0.88455 -0.717234,1.89776 -0.862334,2.25159 -0.1451,0.35382 -0.380962,0.92876 -0.524138,1.27766 -0.14318,0.3489 -0.459036,1.21737 -0.701904,1.92994 -0.242872,0.71256 -0.513624,1.39207 -0.601674,1.51001 -1.674728,2.24323 -0.59449,6.54386 1.775608,7.06904 1.48466,0.32898 2.789024,0.19192 3.670624,-0.38573 z m 6.564808,-16.347062 c 0,-0.0667 0.10026,-0.308668 0.222812,-0.53765 0.365432,-0.682814 1.702194,-4.56598 1.704752,-4.952136 0.0013,-0.19658 0.0807,-0.38956 0.17644,-0.428876 0.09574,-0.0393 0.52006,-1.084696 0.942942,-2.32307 0.422882,-1.238376 1.025486,-2.927064 1.339118,-3.752648 0.313634,-0.825578 0.775002,-2.128288 1.025264,-2.894896 0.29278,-0.896858 0.484798,-1.240918 0.538536,-0.96497 0.04594,0.235888 0.21207,0.718368 0.369194,1.072188 0.15712,0.353818 0.575672,1.46353 0.930106,2.466026 2.072286,5.861296 2.874192,8.088506 3.04972,8.470262 0.10846,0.235878 0.482494,1.224968 0.831196,2.197978 l 0.634001,1.769104 h -5.882037 c -3.23512,0 -5.882036,-0.05462 -5.882036,-0.12132 z m -26.96877,16.231732 c 13.10235,-3.4861 13.800312,-19.533346 1.0219,-23.495122 -0.648672,-0.20111 -1.372398,-0.452308 -1.608278,-0.558212 -0.474072,-0.212854 -3.360177,-0.96416 -5.360924,-1.395556 -7.32512,-1.57942 -9.838041,-5.064906 -6.049709,-8.391108 3.726513,-3.271918 9.87895,-1.83159 12.580211,2.94512 1.896624,3.353856 3.416468,4.115584 5.776552,2.895138 4.252966,-2.1993 1.465486,-9.338816 -4.722994,-12.096926 -2.516748,-1.121676 -12.004671,-1.930404 -12.537265,-1.068646 -0.04857,0.07862 -0.497915,0.207124 -0.998544,0.285642 -9.7799509,1.533798 -13.1658147,13.542432 -5.439058,19.290688 1.882978,1.400826 4.974399,2.566922 10.29213,3.88225 5.951129,1.472002 8.081949,2.724412 8.680679,5.102192 0.486142,1.93065 -0.641142,4.60518 -2.249999,5.33823 -0.278945,0.1271 -0.507172,0.30516 -0.507172,0.39569 0,0.44346 -2.560377,1.11373 -4.643262,1.21555 -3.606462,0.1763 -6.499456,-1.11626 -7.664507,-3.42442 -0.195727,-0.38777 -0.443885,-0.84978 -0.551463,-1.02669 -0.107578,-0.17692 -0.441105,-0.88481 -0.74117,-1.57309 -1.643634,-3.770156 -4.964678,-4.607914 -7.0728902,-1.7842 -0.9000476,1.20552 -0.489469,5.53752 0.6310355,6.65802 0.1416117,0.14162 0.3324307,0.49364 0.4240417,0.78228 0.212108,0.66829 3.751332,4.18436 4.423109,4.39418 0.278397,0.0869 0.554424,0.22345 0.613395,0.30334 1.212162,1.6421 11.310824,2.49457 15.704182,1.32565 z m 64.458238,0.0278 c 1.764474,-1.14411 1.849704,-1.5464 1.92716,-9.09645 l 0.06744,-6.574962 1.969702,-0.11002 c 1.083328,-0.06054 3.210368,-0.11044 4.726748,-0.11098 6.6301,-0.0024 10.21284,-1.115936 13.14184,-4.084964 0.39599,-0.401402 0.71997,-0.80462 0.71997,-0.89604 0,-0.09142 0.12062,-0.29374 0.26805,-0.449584 0.49733,-0.525752 1.19094,-2.205074 1.44555,-3.499922 0.13916,-0.707646 0.30531,-1.527866 0.36924,-1.822716 0.74421,-3.432382 -1.09039,-9.109266 -3.61276,-11.179092 -3.18104,-2.610324 -4.22834,-2.812536 -15.12473,-2.920214 -10.227256,-0.10108 -10.303148,-0.0908 -11.567062,1.56608 l -0.620058,0.812828 -0.06232,17.70784 c -0.0654,18.590136 -0.05082,18.919526 0.885194,20.001136 1.213388,1.40209 3.83163,1.71683 5.466024,0.65706 z m 2.017196,-28.277382 0.05698,-6.195212 3.002124,-0.0633 c 7.54605,-0.15906 10.61111,1.333012 10.98596,5.34801 0.46348,4.964186 -2.08413,6.728512 -10.07795,6.9794 l -4.02403,0.1263 z m -3.374044,50.230002 c -4.085168,-1.9188 -2.86926,-7.74627 1.616548,-7.74761 2.58471,-7.7e-4 5.77868,3.87316 4.066032,4.93163 -0.11794,0.0729 -0.214434,0.32237 -0.214434,0.5544 0,1.79224 -3.439094,3.21462 -5.468146,2.26158 z m 3.488822,-0.50137 c 1.78699,-0.84191 2.388096,-4.1905 1.014352,-5.6507 -2.39703,-2.54791 -6.540324,-1.09795 -6.540324,2.2888 0,3.07359 2.678782,4.70331 5.525972,3.3619 z m -3.341058,-3.11875 -0.04052,-2.51963 h 1.072188 c 1.751248,0 2.528602,1.2147 1.413168,2.20824 -0.51327,0.45719 -0.514032,0.46414 -0.11256,1.02795 0.493504,0.69308 0.925444,1.77166 0.638464,1.59429 -0.1122,-0.0694 -0.464982,-0.60558 -0.78396,-1.19166 -0.514056,-0.94448 -0.66016,-1.06557 -1.285714,-1.06557 h -0.70574 l -0.0774,1.233 c -0.04256,0.67817 -0.09562,0.0992 -0.11792,-1.28662 z m 2.425478,-1.24844 v -0.73509 l -1.125792,-0.0648 -1.125792,-0.0648 v 0.85471 c 0,0.77193 0.05714,0.86171 0.589698,0.92698 1.192494,0.14614 1.661886,-0.11284 1.661886,-0.91696 z m 27.630356,-1.15687 c -0.49077,-0.34375 -0.47792,-0.56355 0.18842,-3.22365 0.17726,-0.70764 0.78962,-3.21656 1.36079,-5.57537 1.02407,-4.22915 1.17109,-4.60382 1.80657,-4.60382 0.99838,0 0.98658,0.12444 -0.6325,6.67385 -1.86371,7.53904 -1.79813,7.37699 -2.72328,6.72899 z m 22.60072,-0.11516 c -0.75766,-0.61338 -0.75766,-12.4651 0,-13.07879 1.23908,-1.00362 2.01969,0.1071 1.98353,2.82235 -0.0146,1.1008 -0.0203,2.09795 -0.0124,2.21588 0.009,0.13208 1.16724,0.21445 3.01602,0.21445 1.84406,0 3.01002,-0.0827 3.02309,-0.21445 0.0116,-0.11794 0.003,-1.01837 -0.019,-2.00096 -0.0587,-2.60537 0.52891,-3.58934 1.88626,-3.15854 0.81669,0.25921 1.1054,12.51231 0.30905,13.11682 -1.45015,1.10083 -2.08177,0.1877 -2.13089,-3.08055 l -0.0401,-2.67028 -3.01542,-0.031 c -1.88088,-0.0194 -3.0202,0.0496 -3.02812,0.18338 -0.007,0.11794 -0.002,1.26052 0.0118,2.53906 0.0321,3.05101 -0.68794,4.19172 -1.98373,3.14269 z m 6.43956,-6.37371 c -0.43916,-0.046 -1.21113,-0.0467 -1.71549,-0.002 -0.50437,0.0453 -0.14504,0.083 0.79846,0.0838 0.94353,7.8e-4 1.35619,-0.0363 0.91703,-0.0824 z m -2.58338,-0.40256 c -0.0712,-0.0712 -0.2562,-0.0789 -0.411,-0.017 -0.17106,0.0685 -0.12024,0.11926 0.12956,0.12956 0.22605,0.009 0.3527,-0.0414 0.28145,-0.11264 z m 9.92601,7.04 c -1.16964,-0.43201 -1.07294,-1.37682 0.52069,-5.08773 0.15194,-0.35382 0.53982,-1.31878 0.86195,-2.14437 1.90378,-4.8793 2.36118,-5.77601 3.17004,-6.21476 l 0.78345,-0.42495 0.60018,0.44727 c 0.76284,0.56849 4.19519,8.28266 5.23084,11.75626 0.70202,2.35457 -1.67035,2.10226 -2.59874,-0.27639 l -0.53085,-1.36012 -2.83788,-0.0192 c -1.56083,-0.0106 -2.87213,0.0224 -2.91401,0.0735 -0.0419,0.0511 -0.32138,0.7166 -0.62113,1.47905 -0.5543,1.40994 -1.09256,1.98279 -1.66454,1.77151 z m 7.11853,-5.73104 c -0.0337,-0.23588 -0.19524,-0.76661 -0.35896,-1.1794 -0.16372,-0.4128 -0.56151,-1.45013 -0.88396,-2.3052 -0.64596,-1.71293 -0.78826,-1.83551 -1.12026,-0.96496 -1.05734,2.77251 -1.69711,4.69182 -1.6109,4.83264 0.26222,0.4283 4.038,0.0644 3.97408,-0.38308 z m -52.86498,5.46453 c -2.51935,-0.75621 -3.98731,-4.49956 -1.76451,-4.49956 0.5049,0 1.18875,0.78471 1.18875,1.36408 0,1.74444 4.47194,2.22693 5.35456,0.57772 0.82138,-1.53475 0.0557,-2.43017 -2.77902,-3.24981 -4.16023,-1.20292 -5.39675,-2.72172 -4.29705,-5.27805 1.41592,-3.29138 9.2268,-2.73176 9.2268,0.66106 0,1.64753 -1.53147,1.75691 -2.34244,0.1673 -0.57523,-1.12755 -0.88618,-1.32934 -2.18723,-1.4193 -3.07932,-0.21292 -3.84988,2.86403 -0.8578,3.42534 4.61667,0.86609 6.7024,2.8553 5.76851,5.50151 -0.33318,0.94408 -1.20328,2.11002 -1.57465,2.11002 -0.14944,0 -0.30558,0.1016 -0.34697,0.22578 -0.18118,0.54353 -3.98402,0.83562 -5.38895,0.41391 z m 20.877,-0.0927 c -0.14184,-0.1709 -0.24079,-0.6775 -0.21992,-1.12579 0.0846,-1.81682 0.30216,-1.68067 -2.56723,-1.60674 -4.90222,0.1263 -4.91515,-0.20983 -0.24588,-6.39196 4.39705,-5.82171 4.98456,-5.7201 4.92938,0.8525 l -0.0314,3.74739 0.67279,0.0338 c 1.72594,0.0868 1.7188,1.42456 -0.009,1.77803 -0.64761,0.13246 -0.67832,0.1861 -0.71578,1.25062 -0.056,1.59084 -1.04405,2.38795 -1.81243,1.46211 z m -0.18088,-4.83576 c 0.0355,-0.1769 0.0164,-1.47961 -0.0426,-2.89489 l -0.10722,-2.57325 -0.85775,1.25206 c -0.47176,0.68863 -0.95883,1.36411 -1.08239,1.50105 -0.76712,0.85032 -2.04711,2.72336 -1.95876,2.86631 0.21087,0.34119 3.9781,0.20043 4.04874,-0.15128 z m 38.95755,4.79229 c -0.22957,-0.27628 -0.30942,-1.63769 -0.36301,-6.18916 l -0.0687,-5.83496 0.50957,-0.59241 c 0.60154,-0.69932 1.53347,-0.78808 1.99862,-0.19034 0.17208,0.22114 1.62924,2.35783 3.23814,4.7482 1.6089,2.39037 2.96499,4.30641 3.01353,4.25786 0.0485,-0.0485 0.0811,-1.92461 0.0725,-4.16902 -0.0194,-4.99378 0.21905,-5.72883 1.65685,-5.10807 0.66758,0.28823 1.07794,12.47595 0.44144,13.11094 -0.39249,0.39156 -1.85278,0.36207 -2.2444,-0.0453 -0.58426,-0.60779 -1.36513,-1.63482 -1.36513,-1.79545 0,-0.22313 -4.54279,-6.94439 -4.7468,-7.02311 -0.10188,-0.0393 -0.18524,1.87339 -0.18524,4.25045 0,4.66391 -0.0624,4.9346 -1.13784,4.9346 -0.28883,0 -0.65758,-0.15938 -0.81945,-0.3542 z m 13.375,0.10654 c -0.14684,-0.14686 -0.267,-0.48749 -0.267,-0.75698 0,-0.44656 3.3616,-9.32408 3.86116,-10.19679 0.11724,-0.20479 0.21314,-0.511 0.21314,-0.68046 0,-1.32589 2.24428,-2.14088 3.15349,-1.14517 0.41595,0.45551 1.34969,2.36216 1.34969,2.75597 0,0.1 0.28949,0.81386 0.64331,1.58639 0.35383,0.77251 0.64331,1.4578 0.64331,1.52284 0,0.0651 0.32862,0.90698 0.73026,1.87095 1.76377,4.23324 1.73508,4.13141 1.33568,4.74098 -0.53557,0.81737 -2.06594,0.61357 -2.06594,-0.27513 0,-0.1168 -0.1366,-0.48556 -0.30355,-0.81946 -0.16696,-0.33389 -0.39513,-0.84832 -0.50705,-1.14317 -0.20342,-0.5359 -0.20453,-0.53608 -3.06078,-0.52162 l -2.85729,0.0146 -0.31617,0.9505 c -0.69097,2.07719 -1.72351,2.92542 -2.55226,2.09667 z m 7.77439,-5.11327 c 0.0729,-0.11794 0.0556,-0.33506 -0.0384,-0.48248 -0.094,-0.14742 -0.37725,-0.84703 -0.62942,-1.55467 -1.51213,-4.24346 -1.253,-4.1889 -2.54603,-0.53609 -0.31312,0.88454 -0.65248,1.81577 -0.75413,2.06936 -0.28071,0.70028 3.54626,1.18626 3.968,0.50388 z"
       id="path1" /></g></svg>
