<?xml version="1.0" encoding="UTF-8" standalone="no"?>
<!-- Created with Inkscape (http://www.inkscape.org/) -->

<svg
   width="149.92799mm"
   height="50mm"
   viewBox="0 0 149.92799 50"
   version="1.1"
   id="svg1"
   xml:space="preserve"
   inkscape:version="1.4.4 (dcaf3e7d9e, 2026-05-05)"
   sodipodi:docname="secure_logo.svg"
   xmlns:inkscape="http://www.inkscape.org/namespaces/inkscape"
   xmlns:sodipodi="http://sodipodi.sourceforge.net/DTD/sodipodi-0.dtd"
   xmlns="http://www.w3.org/2000/svg"
   xmlns:svg="http://www.w3.org/2000/svg"><sodipodi:namedview
     id="namedview1"
     pagecolor="#ffffff"
     bordercolor="#000000"
     borderopacity="0.25"
     inkscape:showpageshadow="2"
     inkscape:pageopacity="0.0"
     inkscape:pagecheckerboard="0"
     inkscape:deskcolor="#d1d1d1"
     inkscape:document-units="mm"
     inkscape:zoom="0.43740881"
     inkscape:cx="529.25317"
     inkscape:cy="538.39793"
     inkscape:window-width="1299"
     inkscape:window-height="699"
     inkscape:window-x="0"
     inkscape:window-y="0"
     inkscape:window-maximized="1"
     inkscape:current-layer="layer1" /><defs
     id="defs1" /><g
     inkscape:label="Layer 1"
     inkscape:groupmode="layer"
     id="layer1"><path
       style="fill:#000000;stroke-width:1.01121"
       d="M 14.003741,49.584353 12.314808,49.214554 10.013996,48.074457 7.7131845,46.93436 5.6830794,44.922925 3.6529753,42.91149 2.7645539,41.398975 C 1.6458752,39.494465 0.72658158,36.796358 0.31734653,34.216482 L 0,32.215877 0.08741897,26.42414 0.17483794,20.632414 0.67098837,20.084804 C 0.94387106,19.783626 1.4250809,19.500376 1.7403433,19.455367 L 2.3135488,19.37356 2.6170459,15.344623 2.9205439,11.315685 3.9927686,9.0377159 5.0649934,6.7597565 6.6331481,5.0629285 C 8.3160022,3.242005 10.029823,2.0371401 12.294959,1.0825189 L 13.713125,0.48484411 15.838652,0.242417 17.964178,0 20.24216,0.25883902 22.520142,0.51767805 23.654739,0.96823208 C 29.913446,3.4535802 33.235846,8.5222018 33.602444,16.144367 l 0.140654,2.924425 0.338999,0.215175 c 0.186449,0.118342 0.48672,0.217016 0.667267,0.219271 0.180547,0.002 0.520082,0.29684 0.754522,0.654636 l 0.426255,0.650551 -0.09253,7.57658 -0.09253,7.57658 -0.822935,2.149708 c -2.28478,5.968436 -6.90453,10.055406 -12.987077,11.48934 L 20.241055,50 17.96689,49.977046 15.692724,49.954091 Z m 4.956812,-11.34862 c 7.271698,-6.828408 8.956495,-8.390816 9.560066,-8.865588 0.962069,-0.756769 0.875795,-1.041575 -0.793833,-2.620638 -1.787831,-1.690862 -1.261657,-1.885206 -5.383024,1.988238 -1.878847,1.765823 -3.956584,3.713916 -4.617194,4.329105 l -1.201111,1.118528 -0.951488,-0.762613 c -0.52332,-0.41944 -1.548948,-1.374263 -2.279176,-2.121839 -0.730228,-0.747566 -1.429718,-1.359216 -1.554421,-1.359216 -0.305269,0 -3.1377427,2.692443 -3.1377427,2.98262 0,0.227775 2.0733377,2.239766 5.8412807,5.66847 l 1.961822,1.785188 0.351428,-0.201595 c 0.193284,-0.110879 1.184811,-0.984169 2.203393,-1.94066 z M 28.261098,15.824279 28.254727,12.417255 27.344178,10.7261 26.433629,9.0349451 25.210162,7.946359 23.986696,6.857783 22.247628,6.0269439 20.50856,5.1961047 18.10062,5.2128907 15.692681,5.2296768 14.133504,5.8405781 12.574326,6.4514795 11.02673,7.9658046 9.4791346,9.4801297 8.8116107,10.814955 c -0.94774,1.895177 -1.6114406,6.421416 -1.1532732,7.864967 l 0.1669495,0.52601 0.5893354,0.08383 c 0.3241347,0.04611 4.9236276,0.05187 10.2210956,0.01274 l 9.63176,-0.07109 z M 2.9841034,19.105985 c 0,-0.07362 -0.060197,-0.133773 -0.1337748,-0.133773 -0.073576,0 -0.1337748,0.06017 -0.1337748,0.133773 0,0.07362 0.060197,0.133772 0.1337748,0.133772 0.073576,0 0.1337748,-0.06017 0.1337748,-0.133772 z m 29.9654756,0 c 0,-0.07362 -0.0602,-0.133773 -0.133775,-0.133773 -0.07358,0 -0.133774,0.06017 -0.133774,0.133773 0,0.07362 0.0602,0.133772 0.133774,0.133772 0.07357,0 0.133775,-0.06017 0.133775,-0.133772 z M 4.5893958,9.4742242 c 0,-0.073616 -0.060197,-0.1337728 -0.1337738,-0.1337728 -0.073575,0 -0.1337748,0.060167 -0.1337748,0.1337728 0,0.073616 0.060197,0.1337728 0.1337748,0.1337728 0.073576,0 0.1337738,-0.060167 0.1337738,-0.1337728 z M 5.1244939,7.8689308 c 0,-0.073616 -0.060197,-0.1337728 -0.1337748,-0.1337728 -0.073575,0 -0.1337737,0.060167 -0.1337737,0.1337728 0,0.073616 0.060197,0.1337728 0.1337737,0.1337728 0.073576,0 0.1337748,-0.060167 0.1337748,-0.1337728 z M 5.6595921,7.3338296 c 0,-0.073616 -0.060197,-0.1337727 -0.1337748,-0.1337727 -0.073576,0 -0.1337748,0.060167 -0.1337748,0.1337727 0,0.073616 0.060197,0.1337728 0.1337748,0.1337728 0.073576,0 0.1337748,-0.060167 0.1337748,-0.1337728 z M 30.541639,7.0662841 c 0,-0.073616 -0.0602,-0.1337728 -0.133774,-0.1337728 -0.07358,0 -0.133775,0.060167 -0.133775,0.1337728 0,0.073616 0.0602,0.1337728 0.133775,0.1337728 0.07357,0 0.133774,-0.060167 0.133774,-0.1337728 z M 11.813216,6.7987285 c 0,-0.073616 -0.0602,-0.1337728 -0.133774,-0.1337728 -0.07357,0 -0.133775,0.060167 -0.133775,0.1337728 0,0.073616 0.0602,0.1337828 0.133775,0.1337828 0.07358,0 0.133774,-0.060167 0.133774,-0.1337828 z M 29.917358,6.2190431 29.738992,6.0406761 v 0.3567341 0.3567341 l 0.178366,-0.1783671 0.178366,-0.178367 z m -17.437163,-0.086155 0.16346,-0.2644816 -0.41522,0.1593361 c -0.463506,0.1778615 -0.54831,0.369627 -0.163459,0.369627 0.138466,0 0.325315,-0.1190192 0.415219,-0.2644815 z M 12.348314,5.4609503 c 0,-0.073616 -0.0602,-0.1337728 -0.133775,-0.1337728 -0.07357,0 -0.133773,0.060167 -0.133773,0.1337728 0,0.073616 0.0602,0.1337727 0.133773,0.1337727 0.07358,0 0.133775,-0.060167 0.133775,-0.1337727 z M 29.203895,5.1934047 c 0,-0.073616 -0.0602,-0.1337727 -0.133775,-0.1337727 -0.07358,0 -0.133775,0.060167 -0.133775,0.1337727 0,0.073616 0.0602,0.1337728 0.133775,0.1337728 0.07358,0 0.133775,-0.060167 0.133775,-0.1337728 z M 28.133699,4.390758 c 0,-0.073616 -0.0602,-0.1337727 -0.133774,-0.1337727 -0.07358,0 -0.133775,0.060167 -0.133775,0.1337727 0,0.073616 0.0602,0.1337728 0.133775,0.1337728 0.07357,0 0.133774,-0.060167 0.133774,-0.1337728 z M 12.883412,1.4477168 c 0,-0.073616 -0.0602,-0.1337728 -0.133774,-0.1337728 -0.07358,0 -0.133775,0.060167 -0.133775,0.1337728 0,0.073616 0.0602,0.1337727 0.133775,0.1337727 0.07358,0 0.133774,-0.060167 0.133774,-0.1337727 z M 45.966023,46.073144 44.936147,45.95914 45.092834,45.374894 c 0.08615,-0.321341 0.158335,-0.710353 0.160337,-0.864482 l 0.004,-0.280226 1.740846,0.110849 1.740847,0.110849 0.399548,-0.331596 0.399539,-0.331585 v -0.652897 -0.652887 l -1.757288,-0.796792 -1.757279,-0.796791 -0.399165,-0.955319 -0.399154,-0.955329 0.350485,-1.101388 0.350485,-1.101399 0.668874,-0.336358 0.668875,-0.336348 1.237415,-0.004 c 0.680574,-0.002 1.616791,0.0719 2.080471,0.164665 l 0.843065,0.168609 -0.170814,0.567147 c -0.09394,0.311937 -0.252438,0.656284 -0.352204,0.765222 l -0.18138,0.198075 -0.791857,-0.22105 -0.791857,-0.22105 -0.869528,0.231283 -0.869539,0.231294 v 0.485977 c 0,0.641682 0.680119,1.224603 2.078519,1.781496 l 1.142089,0.454821 0.530086,0.6739 0.530096,0.6739 v 0.882926 c 0,0.485603 -0.115228,1.185986 -0.256059,1.556392 l -0.256058,0.673475 -0.747252,0.382772 c -0.863006,0.44206 -2.96179,0.689068 -4.452615,0.524039 z m 7.584822,-0.03923 -0.936419,-0.173058 v -0.668874 -0.668874 l 1.47152,-0.06937 c 0.809331,-0.03812 1.749725,-0.132569 2.089764,-0.209836 l 0.618253,-0.140487 -0.08312,-0.860356 -0.08312,-0.860357 -1.79531,-0.857949 -1.795299,-0.85795 -0.234287,-0.881117 -0.234287,-0.881116 0.221354,-0.792939 c 0.121749,-0.436114 0.466521,-1.038097 0.766172,-1.337738 l 0.544809,-0.544809 h 2.110655 c 1.160867,0 2.199813,0.08909 2.308771,0.198096 l 0.198095,0.198096 -0.262641,0.588604 -0.262641,0.588604 -1.499137,-0.06947 -1.499146,-0.06947 -0.29772,0.556306 -0.297731,0.556307 0.700869,0.649549 c 0.385483,0.35726 1.043041,0.724703 1.461247,0.816561 0.418205,0.09182 1.070869,0.454771 1.450376,0.806479 l 0.690018,0.639489 v 1.290989 1.29099 l -0.41505,0.592558 c -0.736423,1.051394 -2.858808,1.554945 -4.935931,1.17108 z M 60.50712,41.199251 V 36.06301 l 1.003301,0.08302 1.003311,0.08302 0.07382,4.080115 0.07382,4.080125 h 1.761101 1.7611 l -0.184525,0.735209 c -0.101485,0.404362 -0.205448,0.756131 -0.231011,0.781694 -0.02558,0.02558 -1.21974,0.1326 -2.653734,0.237867 l -2.60726,0.191381 z m 9.899306,-0.02053 v -5.101536 l 2.87615,0.07594 2.87615,0.07594 -0.07271,0.652341 c -0.09667,0.867748 -0.05531,0.846331 -1.842827,0.953792 l -1.56265,0.09394 -0.08231,1.089689 -0.08231,1.089678 h 1.486901 1.486901 v 0.802646 0.802647 H 74.0182 72.546689 v 1.337748 1.337748 h 1.889787 1.889797 l -0.08383,0.869528 -0.08383,0.869538 -2.87615,0.07594 -2.876149,0.07594 z m 7.830879,4.866016 -0.329361,-0.209219 -0.09778,-4.870111 -0.09778,-4.870122 h 0.881025 0.881025 l 1.88641,3.143706 1.886409,3.143695 7.79e-4,-3.143695 7.88e-4,-3.143706 h 0.93642 0.936419 v 5.116877 5.116876 l -0.850021,-0.170004 c -0.467512,-0.09354 -0.876041,-0.198854 -0.907833,-0.234105 -0.03175,-0.03529 -0.799482,-1.295044 -1.705979,-2.79952 -0.906498,-1.504476 -1.762142,-2.805851 -1.901436,-2.891945 l -0.253257,-0.156525 v 3.092609 3.092599 l -0.46821,-0.004 c -0.257515,-0.002 -0.616423,-0.09829 -0.797571,-0.213314 z m 11.895037,-0.03205 -1.009136,-0.203294 -0.686408,-0.643158 c -0.377535,-0.353741 -0.864644,-1.06455 -1.082468,-1.579579 l -0.39605,-0.936419 0.004,-1.581925 0.004,-1.581924 0.618981,-1.202792 0.61898,-1.202802 0.976181,-0.506595 0.97619,-0.506596 1.66089,-0.0081 1.660889,-0.0081 0.262399,0.262399 0.262408,0.262398 -0.178387,0.56203 -0.178377,0.562029 h -1.425197 -1.425198 l -0.83094,0.776224 -0.83094,0.776214 v 1.65733 1.65733 l 0.461374,0.781048 0.461374,0.781047 0.809482,0.216591 c 0.445215,0.11912 1.305015,0.166414 1.910658,0.105084 l 1.101176,-0.111495 0.133803,0.699938 c 0.07362,0.384957 0.05966,0.743491 -0.03094,0.796731 -0.414636,0.24358 -2.940776,0.35912 -3.849387,0.176072 z m 5.691223,-4.819308 v -5.068774 l 1.270866,-0.0815 c 0.698968,-0.0449 1.812642,0.0081 2.474822,0.116916 l 1.203977,0.19846 0.73576,0.809067 0.73575,0.809068 v 1.107607 1.107607 l -0.66886,0.87693 c -0.8459,1.109033 -0.86029,0.994473 0.38344,3.053041 l 1.05068,1.739066 -0.214,0.219321 -0.21401,0.219321 -0.93873,-0.176102 -0.93872,-0.176112 -0.36306,-0.712083 C 100.1418,44.843555 99.645568,43.96801 99.238739,43.28955 98.83192,42.61109 98.49906,41.878955 98.49906,41.662586 v -0.39341 l 0.676094,-0.361841 0.676084,-0.361831 0.155562,-0.6198 c 0.0855,-0.340888 0.0805,-0.918955 -0.01132,-1.284588 l -0.16685,-0.664799 -0.664202,-0.166708 c -0.365309,-0.09172 -0.834307,-0.101424 -1.042202,-0.02164 l -0.37801,0.145058 -0.03297,3.953724 -0.03297,3.953734 -0.325387,0.206752 c -0.178954,0.11372 -0.596269,0.208602 -0.927359,0.210857 l -0.601993,0.004 z m 10.768845,4.891569 -0.33444,-0.134946 v -1.67718 -1.677191 l -1.47151,-2.998303 c -0.80934,-1.649079 -1.47152,-3.11165 -1.47152,-3.250176 V 36.09528 h 0.95902 0.95902 l 0.97228,2.140395 c 1.17488,2.586388 1.07809,2.574132 2.02846,0.256816 l 0.77178,-1.881828 0.51232,-0.274189 c 0.28176,-0.150792 0.79604,-0.236653 1.14282,-0.190795 l 0.63053,0.08342 -1.46403,3.050108 -1.46403,3.050097 -0.13837,1.76372 -0.13837,1.763719 -0.31221,0.198622 c -0.34853,0.221728 -0.68478,0.230151 -1.18175,0.02963 z m 6.01024,0.01153 -0.19105,-0.191048 v -4.905018 -4.905069 l 2.07351,4.25e-4 2.0735,4.14e-4 0.93642,0.467795 0.93643,0.467796 0.33429,1.023959 0.3343,1.02396 -0.16932,1.058816 -0.1693,1.058826 -0.50181,0.637931 -0.5018,0.637941 -1.35773,0.291178 c -0.74675,0.160145 -1.46222,0.226592 -1.58994,0.147657 l -0.23222,-0.143521 -0.0799,1.679961 -0.0799,1.679951 -0.81226,0.07958 c -0.44675,0.04378 -0.89824,-0.0061 -1.00331,-0.111486 z m 3.868,-5.360528 0.48929,-0.442798 v -0.806995 -0.807005 l -0.44279,-0.489273 -0.4428,-0.489283 h -0.76118 -0.76117 v 1.739076 1.739066 h 0.71469 0.71469 z m 6.10781,1.409584 V 38.0289 l -1.18027,-0.176992 -1.18027,-0.176992 -0.15748,-0.410368 c -0.0866,-0.225702 -0.15747,-0.581111 -0.15747,-0.789805 v -0.379405 h 3.61191 3.61191 v 0.93643 0.936419 h -1.16524 -1.16524 l -0.19167,3.942398 -0.19166,3.942399 -0.31528,0.200512 c -0.1734,0.110283 -0.58616,0.202353 -0.91725,0.204608 l -0.60199,0.004 z m 5.88608,-0.950647 v -5.099544 h 1.07609 1.0761 l -0.0728,5.016544 -0.0728,5.016545 -1.00331,0.08302 -1.00331,0.08302 z m 6.74465,4.813848 c -1.04251,-0.258788 -1.82996,-0.919795 -2.39315,-2.008897 l -0.4096,-0.79208 -0.005,-2.017815 -0.005,-2.017826 0.41976,-0.982491 0.41976,-0.9825 0.68519,-0.448946 c 0.37684,-0.246927 1.10902,-0.544546 1.62705,-0.661381 l 0.94187,-0.212424 1.13767,0.254784 1.13767,0.254784 0.73746,0.705004 0.73745,0.705015 0.26436,0.951628 c 0.1454,0.523391 0.26504,1.641474 0.26586,2.48462 l 10e-4,1.532992 -0.43175,1.07906 -0.43175,1.079061 -0.71065,0.506019 -0.71064,0.506018 -1.19865,0.141974 -1.19866,0.141974 z m 2.23374,-1.556624 c 0.15568,-0.108108 0.48678,-0.494248 0.73576,-0.858081 l 0.45271,-0.661512 V 41.239694 39.54687 l -0.40619,-0.785486 -0.4062,-0.785487 -0.664,-0.166647 c -0.3652,-0.09161 -0.94292,-0.09667 -1.28381,-0.01112 l -0.6198,0.155564 -0.38351,0.71813 -0.3835,0.71812 v 1.987793 1.987783 l 0.75067,0.645667 0.75068,0.645666 0.58707,-0.004 c 0.32289,-0.002 0.71444,-0.09253 0.87012,-0.200665 z m 5.53614,1.632859 -0.33444,-0.134946 v -4.927315 -4.927366 h 0.75233 0.75233 l 0.58542,0.791817 c 0.32197,0.435497 0.58541,0.837675 0.58541,0.893716 0,0.05602 0.60198,1.103511 1.33775,2.3277 l 1.33773,2.225802 V 39.21486 36.095343 h 0.93643 0.93642 v 5.116876 5.116877 l -0.85003,-0.170004 c -0.46751,-0.09354 -0.86843,-0.198855 -0.89093,-0.234105 -0.0225,-0.03529 -0.81386,-1.355687 -1.75858,-2.934285 -2.10898,-3.524061 -2.08021,-3.523636 -2.08563,-0.03074 l -0.004,2.851415 -0.34891,0.221303 c -0.38524,0.244349 -0.46417,0.248687 -0.95088,0.05228 z M 48.732933,30.497672 C 47.922489,30.385398 46.808814,30.144831 46.25811,29.963077 L 45.256832,29.632624 V 28.9692 c 0,-0.832376 0.539591,-3.011955 0.782877,-3.162321 0.10011,-0.06189 1.078555,0.127725 2.174373,0.421299 l 1.992404,0.533767 1.31269,-0.163968 c 2.775545,-0.346693 4.012242,-1.893619 3.201971,-4.005164 L 54.553701,22.156467 53.048962,21.40793 c -0.827603,-0.411694 -2.153843,-0.977465 -2.947197,-1.257276 l -1.442459,-0.508749 -1.147478,-1.010046 -1.14747,-1.010045 -0.323395,-0.979892 -0.323394,-0.979891 0.02194,-1.54994 0.02194,-1.54994 0.466481,-0.983046 c 0.256574,-0.540673 0.8409,-1.355858 1.298514,-1.8115292 l 0.832012,-0.8284932 1.42907,-0.5083446 1.42906,-0.5083446 2.170397,8.191e-4 2.170397,8.191e-4 1.605294,0.4672389 c 0.882916,0.2569885 1.680729,0.5888267 1.772931,0.7374238 l 0.167628,0.2701746 -0.392885,1.5091781 c -0.487594,1.873011 -0.30319,1.755154 -1.971169,1.259824 l -1.412688,-0.41952 h -1.57432 -1.57433 l -0.584388,0.3076 c -0.810028,0.426365 -0.976908,0.746008 -0.98163,1.880251 l -0.004,0.983895 0.632369,0.497424 c 0.347805,0.273582 1.160483,0.721103 1.805958,0.994483 5.688927,2.409518 6.347143,3.009093 6.77631,6.172669 l 0.181552,1.338345 -0.289974,1.293932 -0.289974,1.293922 -0.65587,0.965198 c -1.676796,2.467632 -5.570757,3.640108 -10.035243,3.021602 z M 86.787881,30.48756 85.377336,30.265883 83.924412,29.555034 82.471477,28.844185 81.269211,27.506973 80.066945,26.169771 79.513622,24.690869 C 79.209289,23.877473 78.83861,22.353976 78.689881,21.305322 l -0.270407,-1.906643 0.267748,-1.925068 c 0.147262,-1.058786 0.526172,-2.629688 0.842013,-3.490894 l 0.574255,-1.565836 1.639533,-1.616578 1.639523,-1.6165788 1.704189,-0.6352917 1.70419,-0.6352917 2.309044,0.00303 2.309044,0.00303 1.56531,0.4582493 1.56531,0.4582595 -0.177851,0.9480685 c -0.09778,0.5214399 -0.374774,1.3609959 -0.615432,1.8656699 l -0.43757,0.917601 -0.414787,-0.173675 C 92.216008,12.109504 88.719097,11.933766 87.668846,12.1308 l -0.973864,0.182695 -1.033223,0.933457 -1.033222,0.933456 -0.431271,1.258702 c -0.237199,0.692294 -0.504077,1.946051 -0.593073,2.786142 l -0.161804,1.527441 0.329836,1.676563 c 0.181421,0.922121 0.559047,2.125833 0.839172,2.67492 l 0.509315,0.998345 1.271311,0.747304 1.271302,0.747303 2.274167,-0.01011 2.274167,-0.01011 0.583407,-0.324224 0.583407,-0.324214 0.396899,0.39689 c 0.327814,0.327823 0.978,2.533875 0.978,3.31832 0,0.612894 -5.635181,1.209406 -7.965491,0.843186 z m 17.190289,0.0051 c -2.50128,-0.39246 -4.089588,-1.517207 -5.211099,-3.690213 l -0.584195,-1.131906 -0.267131,-3.01511 -0.267131,-3.0151 0.103881,-5.542444 0.103882,-5.5424331 0.198591,-0.1985913 c 0.241952,-0.2419518 3.864792,-0.2339734 4.107812,0.0091 0.0954,0.095357 0.24657,3.6945204 0.33596,7.9980924 l 0.16253,7.82467 0.47838,0.890602 0.47838,0.890612 0.97597,0.40779 0.97597,0.40779 1.03365,-0.138647 1.03363,-0.138637 0.54173,-0.490254 c 0.29795,-0.269639 0.73698,-0.851731 0.97563,-1.293528 l 0.4339,-0.803283 0.10031,-7.959576 0.10031,-7.9595855 1.2444,0.00303 c 0.68442,0.00202 1.6784,0.074728 2.20884,0.162481 l 0.96444,0.1595282 0.13613,3.5163153 c 0.0748,1.933987 0.0524,5.683477 -0.0498,8.332206 l -0.18603,4.81588 -0.61041,1.398491 -0.61042,1.398491 -1.14942,1.059494 -1.14941,1.059493 -1.02756,0.269932 c -1.55542,0.408589 -4.07895,0.55121 -5.58152,0.315457 z M 63.105643,30.309921 62.91506,30.119329 v -9.683595 c 0,-5.325985 0.07655,-10.242197 0.170136,-10.9249142 l 0.170146,-1.241319 h 6.087475 6.087485 l 0.175677,0.9364195 c 0.09657,0.5150388 0.0994,1.3429047 0.0061,1.8397117 l -0.169448,0.903282 -1.217758,0.16691 c -0.669764,0.09182 -2.404917,0.16691 -3.8559,0.16691 h -2.638141 v 2.250495 2.250495 l 2.921431,0.0906 2.921432,0.09061 0.222264,0.223467 c 0.259243,0.260639 0.276636,3.021935 0.02063,3.277923 -0.09546,0.09546 -1.495739,0.236289 -3.11167,0.312878 l -2.938046,0.139263 -0.08494,2.340786 c -0.04672,1.28744 -0.04601,2.534938 0.002,2.772228 l 0.08656,0.431442 h 3.959417 3.959416 l 0.166759,1.042829 c 0.09172,0.573548 0.09202,1.416329 7.48e-4,1.872839 l -0.166,0.83002 -1.90629,0.01658 c -1.048451,0.0091 -3.837161,0.07483 -6.19713,0.145998 l -4.290861,0.129395 z m 55.962757,-0.01153 -0.43324,-0.115621 -0.19152,-5.40498 -0.19151,-5.40498 0.18801,-5.484754 c 0.22115,-6.4511761 -0.16294,-5.6404499 2.80179,-5.9140222 l 2.42677,-0.2239321 2.03601,0.2581413 2.036,0.2581413 1.38944,0.6361108 c 1.48247,0.6786927 2.58105,1.6775439 3.27641,2.9789389 l 0.42886,0.802647 0.0197,2.017927 0.0197,2.017917 -0.68235,1.326443 -0.68236,1.326442 -1.06642,0.802647 -1.06643,0.802647 2.62046,4.544542 c 1.44124,2.499495 2.62046,4.636542 2.62046,4.748989 v 0.204456 h -1.70563 c -0.9381,0 -2.09786,-0.07847 -2.57726,-0.174332 l -0.87163,-0.174322 -0.65468,-1.096535 c -0.97361,-1.630745 -4.66933,-8.257781 -4.81096,-8.626872 l -0.1227,-0.319744 1.44761,-0.926034 c 0.7962,-0.509315 1.70838,-1.257519 2.02707,-1.66268 l 0.57945,-0.736645 v -1.284234 c 0,-1.631868 -0.33804,-2.515381 -1.17131,-3.061353 l -0.66008,-0.432504 -1.49224,-0.154017 -1.49225,-0.154017 v 9.401649 9.40164 l -1.80595,-0.03104 c -0.99328,-0.01709 -2.00092,-0.08312 -2.23921,-0.146656 z m 20.99654,-0.01304 -2.98101,-0.09384 -0.19875,-5.275596 -0.19874,-5.275606 0.16661,-4.280779 c 0.0916,-2.354427 0.16805,-4.91509 0.16982,-5.6903428 l 0.003,-1.4095639 6.22051,0.071796 6.22051,0.071796 v 1.8728387 1.872849 l -3.94634,0.07402 -3.94635,0.07402 v 2.267008 2.267018 h 3.21058 3.21059 v 1.835576 1.835576 l -1.40463,0.16871 c -0.77254,0.09283 -2.21731,0.169761 -3.21059,0.171046 l -1.80595,0.002 v 2.809258 2.809269 h 4.00111 4.00112 l 0.17566,0.936419 0.17568,0.93642 -0.17568,0.936419 -0.17566,0.93642 h -2.49615 c -1.37289,0 -2.8423,0.03843 -3.26536,0.08535 -0.42306,0.04692 -2.11065,0.04308 -3.75021,-0.0081 z"
       id="path1" /></g></svg>
