<?xml version="1.0" encoding="UTF-8" standalone="no"?>
<!-- Created with Inkscape (http://www.inkscape.org/) -->

<svg
   width="100mm"
   height="32.428001mm"
   viewBox="0 0 100 32.428001"
   version="1.1"
   id="svg1"
   xml:space="preserve"
   inkscape:version="1.4.4 (dcaf3e7d9e, 2026-05-05)"
   sodipodi:docname="visa.svg"
   xmlns:inkscape="http://www.inkscape.org/namespaces/inkscape"
   xmlns:sodipodi="http://sodipodi.sourceforge.net/DTD/sodipodi-0.dtd"
   xmlns="http://www.w3.org/2000/svg"
   xmlns:svg="http://www.w3.org/2000/svg"><sodipodi:namedview
     id="namedview1"
     pagecolor="#ffffff"
     bordercolor="#000000"
     borderopacity="0.25"
     inkscape:showpageshadow="2"
     inkscape:pageopacity="0.0"
     inkscape:pagecheckerboard="0"
     inkscape:deskcolor="#d1d1d1"
     inkscape:document-units="mm"
     showgrid="false"
     inkscape:zoom="0.43740881"
     inkscape:cx="616.12842"
     inkscape:cy="261.76885"
     inkscape:window-width="1299"
     inkscape:window-height="699"
     inkscape:window-x="0"
     inkscape:window-y="0"
     inkscape:window-maximized="1"
     inkscape:current-layer="layer1" /><defs
     id="defs1" /><g
     inkscape:label="Layer 1"
     inkscape:groupmode="layer"
     id="layer1"><path
       style="fill:#000000;stroke-width:0.104185"
       d="m 56.570601,32.435335 c -2.661008,-0.122753 -5.555633,-0.697197 -7.732115,-1.534458 -0.529561,-0.203714 -0.495848,-0.172873 -0.4413,-0.4037 0.01503,-0.06357 0.08299,-0.382273 0.151052,-0.708235 0.116467,-0.55783 0.215037,-1.021018 0.621802,-2.92194 0.09246,-0.432088 0.205243,-0.959278 0.250628,-1.171532 0.04539,-0.212254 0.105322,-0.497557 0.133196,-0.634005 0.09653,-0.472547 0.254672,-1.185366 0.265438,-1.196437 0.0059,-0.0061 0.0823,0.02837 0.169679,0.07664 2.48451,1.372498 6.545807,2.240501 8.938466,1.91038 3.708972,-0.511735 5.188931,-2.958727 3.007944,-4.973402 -0.592247,-0.547087 -1.379554,-1.033666 -3.614385,-2.233799 -0.113709,-0.06106 -0.299772,-0.163127 -0.41348,-0.22681 -0.202445,-0.11338 -0.285436,-0.159502 -0.620226,-0.344688 -0.730074,-0.403832 -1.905305,-1.179085 -2.482134,-1.637364 -2.606775,-2.071028 -3.54167,-4.543687 -2.945256,-7.7897551 0.887802,-4.8319996 5.46954,-8.13515373 11.932843,-8.60285647 2.669554,-0.19317671 6.166069,0.27181513 8.558826,1.13821497 0.29217,0.1057921 0.510389,0.193133 0.531333,0.2126634 0.01162,0.010832 -0.05383,0.3661979 -0.145442,0.7897014 -0.09161,0.4235046 -0.277467,1.2847932 -0.413013,1.9139745 -0.135549,0.6291823 -0.345994,1.602932 -0.467658,2.1638891 -0.121664,0.5609572 -0.254069,1.1749786 -0.294228,1.3644912 -0.09085,0.428675 -0.06509,0.4088782 -0.356959,0.2743383 -4.432387,-2.0431515 -9.866977,-1.7492806 -10.92808,0.5909271 -0.560104,1.2352867 0.227463,2.3712086 2.509081,3.6188856 0.357764,0.195639 1.160226,0.628397 1.447186,0.78045 0.267373,0.141674 0.533525,0.28591 1.178425,0.638625 4.919497,2.690623 6.674173,5.786972 5.793054,10.222572 -0.297133,1.495775 -1.190138,3.384175 -1.968345,4.162385 -0.0076,0.0076 -0.09295,0.106816 -0.189704,0.220524 -0.755545,0.887905 -1.969078,1.825469 -3.20085,2.472949 -2.499902,1.314067 -5.896678,1.983247 -9.275778,1.827371 z M 16.286706,31.835678 C 16.139482,31.26469 15.955251,30.554016 15.866883,30.216207 15.807394,29.988792 15.664945,29.436794 15.550329,28.989543 15.435712,28.542294 15.263988,27.878655 15.168718,27.514791 14.927214,26.592402 14.836519,26.24241 14.504412,24.951202 14.344532,24.329601 14.178316,23.690772 14.135043,23.531581 14.09177,23.37239 13.937309,22.776976 13.791798,22.208438 13.646287,21.639901 13.49134,21.038285 13.44747,20.871513 13.289172,20.269737 13.141525,19.70071 12.961102,18.997061 12.860029,18.602875 12.743101,18.150113 12.701263,17.990922 12.659426,17.831731 12.529458,17.329351 12.412445,16.874521 12.295434,16.41969 12.06515,15.532771 11.900706,14.90359 11.736261,14.274408 11.520669,13.44331 11.421613,13.056703 11.322556,12.670097 11.192934,12.167717 11.133563,11.940302 10.927276,11.150135 10.773683,10.557944 10.590203,9.8453273 9.7308131,6.507544 9.6394203,6.184388 9.4203664,5.7088715 8.9493651,4.6864397 8.1244419,4.0811854 6.1947085,3.3421718 5.9293906,3.2405659 5.5820656,3.1070264 5.4228748,3.045418 3.885129,2.4502977 1.7425301,1.8338081 0.16476194,1.5325015 -0.0399782,1.4934021 -0.03204351,1.5417531 0.0700562,0.95546349 L 0.14446264,0.52819891 H 7.2423832 14.340303 l 0.284769,0.0629972 c 1.600449,0.35405522 2.62597,1.43766609 2.940472,3.10703109 0.03713,0.1970931 0.122995,0.6498569 0.190808,1.0061404 0.146645,0.7704627 0.436833,2.3003041 0.72157,3.8040348 0.113395,0.5988594 0.22492,1.1818683 0.247833,1.2955762 0.02291,0.113708 0.195423,1.0192324 0.383357,2.0122784 0.187934,0.993046 0.404723,2.134257 0.481753,2.536023 0.07703,0.401767 0.22088,1.15844 0.319667,1.681493 0.09879,0.523055 0.254236,1.34175 0.345442,1.819321 0.09121,0.477572 0.201657,1.060582 0.245448,1.295578 0.04379,0.234995 0.09313,0.489286 0.109653,0.565092 0.03214,0.147496 0.314969,1.649574 0.364622,1.936474 0.04321,0.249674 0.03506,0.264252 0.477438,-0.85453 0.223304,-0.564748 0.558181,-1.411351 0.744172,-1.881343 0.455209,-1.150295 0.628656,-1.589594 1.088358,-2.756546 0.215009,-0.545797 0.533587,-1.352086 0.707953,-1.791756 0.174366,-0.439669 0.384928,-0.973061 0.467914,-1.185315 0.08299,-0.212254 0.285872,-0.72704 0.450854,-1.143967 0.59511,-1.503908 1.045202,-2.6426046 1.253013,-3.1700282 0.704992,-1.7892615 1.146053,-2.9054298 1.737379,-4.3966919 0.162317,-0.4093478 0.404052,-1.0233682 0.53719,-1.364491 0.133136,-0.3411228 0.318684,-0.8124918 0.412329,-1.0474871 0.09364,-0.2349963 0.270257,-0.6783772 0.392472,-0.9852921 l 0.22221,-0.55802741 4.230424,-0.007064 c 2.326735,-0.003886 4.236039,0.002022 4.242903,0.0131262 0.01058,0.0171353 -0.157234,0.43658491 -0.416541,1.04107971 -0.03577,0.083385 -0.160084,0.3810921 -0.276256,0.6615712 -0.116172,0.2804781 -0.231,0.5533767 -0.255175,0.6064399 -0.02418,0.053063 -0.102105,0.2391305 -0.17318,0.4134821 -0.07108,0.1743517 -0.368034,0.8876089 -0.659902,1.5850141 -1.13805,2.7193171 -1.305703,3.120223 -1.368898,3.2733994 -0.06806,0.1649884 -0.106071,0.2561737 -0.336069,0.8062907 -0.07606,0.1819322 -0.200159,0.4796392 -0.275766,0.6615711 -0.07561,0.1819312 -0.329545,0.7897493 -0.564304,1.3507073 -0.234759,0.560957 -0.665608,1.590527 -0.957437,2.287933 -0.291835,0.697407 -0.573504,1.37345 -0.625934,1.502318 -0.05243,0.128869 -0.192075,0.463789 -0.310321,0.744268 -0.193761,0.459602 -0.416547,0.991854 -0.674981,1.61258 -0.0505,0.121289 -0.131253,0.313556 -0.17946,0.427264 -0.0482,0.113708 -0.159824,0.381334 -0.248041,0.594725 -0.203283,0.491728 -0.991073,2.375836 -1.370701,3.278224 -0.159454,0.379025 -0.361486,0.862799 -0.44896,1.075053 -0.08748,0.212254 -0.273718,0.658815 -0.413875,0.992357 -0.252342,0.600517 -0.407038,0.971318 -0.661261,1.585014 -0.07222,0.174352 -0.264523,0.633317 -0.42733,1.019922 -0.162807,0.386607 -0.348937,0.833167 -0.413621,0.992357 -0.06469,0.159191 -0.142387,0.345258 -0.172674,0.413482 -0.05374,0.121055 -0.4064,0.96414 -0.668774,1.598798 -0.07208,0.174352 -0.307502,0.738754 -0.523161,1.254228 -0.57772,1.38088 -0.595919,1.424264 -0.64467,1.536775 l -0.04479,0.103371 H 20.570791 16.31336 Z m 18.456636,0.0827 c -0.01042,-0.01734 0.178585,-0.935327 0.520756,-2.529132 0.03906,-0.181932 0.174476,-0.820762 0.300927,-1.419621 0.126452,-0.598861 0.300132,-1.417555 0.38596,-1.819321 0.08583,-0.401767 0.329474,-1.54918 0.541434,-2.549806 0.211961,-1.000627 0.465887,-2.197657 0.564279,-2.660068 0.09839,-0.462411 0.25277,-1.192503 0.343063,-1.622429 0.09029,-0.429925 0.19485,-0.919901 0.232341,-1.088835 0.03749,-0.168936 0.155605,-0.722704 0.262469,-1.230598 0.106863,-0.507894 0.218244,-1.035083 0.247511,-1.171532 0.02928,-0.136449 0.104426,-0.489976 0.167007,-0.785616 0.322603,-1.523924 0.716446,-3.37835 1.129891,-5.3201348 0.137195,-0.6443422 0.304403,-1.4320256 0.371577,-1.7504072 0.06717,-0.3183812 0.16693,-0.7897502 0.221679,-1.0474881 0.05475,-0.2577365 0.135105,-0.636073 0.178562,-0.8407466 0.04346,-0.2046733 0.122625,-0.5768065 0.175927,-0.8269639 0.05331,-0.2501563 0.147523,-0.6967168 0.209374,-0.9923569 0.06185,-0.2956389 0.148961,-0.704987 0.19357,-0.9096603 0.111009,-0.5093141 0.511026,-2.39499935 0.558443,-2.63250237 l 0.03852,-0.19295792 4.043477,-0.00698 4.043477,-0.00698 -0.01461,0.0621137 c -0.008,0.0341631 -0.13254,0.62651729 -0.276675,1.31634329 -0.144134,0.689825 -0.280313,1.3348569 -0.302615,1.4334039 -0.05029,0.2221828 -0.462241,2.1598478 -0.550886,2.5911535 -0.12477,0.6070589 -0.529172,2.5233046 -0.689363,3.2665084 -0.05228,0.2425759 -0.170753,0.8007764 -0.263267,1.2404463 -0.09251,0.439669 -0.203515,0.966858 -0.246668,1.171532 -0.04316,0.204674 -0.203668,0.967547 -0.356695,1.695276 -0.153031,0.727728 -0.296494,1.403771 -0.318808,1.502318 -0.0223,0.09855 -0.127757,0.594725 -0.234318,1.102619 -0.106558,0.507894 -0.20695,0.979263 -0.223091,1.047487 -0.01613,0.06822 -0.05845,0.266697 -0.09402,0.441048 -0.06804,0.333542 -0.284621,1.364274 -0.428619,2.039844 -0.04686,0.219836 -0.120502,0.567161 -0.163651,0.771834 -0.295549,1.401935 -0.537764,2.548663 -0.605535,2.866808 -0.0436,0.204674 -0.204402,0.967548 -0.357339,1.695276 -0.152936,0.727729 -0.296529,1.403772 -0.319096,1.502319 -0.05119,0.22351 -0.404996,1.896721 -0.757752,3.58351 -0.07451,0.356284 -0.178562,0.84626 -0.231224,1.088837 -0.05266,0.242575 -0.109691,0.509271 -0.126728,0.592657 -0.01704,0.08338 -0.04402,0.210531 -0.05995,0.282546 l -0.02895,0.130936 h -4.033964 c -2.21868,0 -4.039566,-0.0093 -4.046408,-0.02067 z m 36.285347,-0.01994 c 0,-0.02234 0.0248,-0.09366 0.0551,-0.158501 0.03032,-0.06484 0.162057,-0.378384 0.29279,-0.696766 0.130732,-0.318381 0.299716,-0.727728 0.375524,-0.90966 0.07581,-0.181932 0.209423,-0.504449 0.296925,-0.716703 0.0875,-0.212254 0.208836,-0.503758 0.269632,-0.647788 0.06079,-0.144029 0.172294,-0.410726 0.247775,-0.592658 0.303445,-0.731391 0.755988,-1.820028 0.95682,-2.301716 0.796064,-1.909345 1.050759,-2.521205 1.130228,-2.715198 0.04969,-0.121288 0.173644,-0.418995 0.27547,-0.661571 0.101823,-0.242577 0.29072,-0.69534 0.419774,-1.006141 0.440115,-1.059928 0.498153,-1.199317 0.682908,-1.640144 0.101666,-0.242577 0.220072,-0.52788 0.263127,-0.634006 0.04305,-0.106128 0.135773,-0.329408 0.206047,-0.496179 0.07027,-0.166771 0.19706,-0.47068 0.281751,-0.675353 0.615146,-1.486629 0.887621,-2.141423 1.089708,-2.61872 0.105916,-0.250157 0.245642,-0.585077 0.310502,-0.744268 0.06486,-0.15919 0.18261,-0.444494 0.261667,-0.634006 0.07906,-0.189512 0.171895,-0.412792 0.206307,-0.496178 0.122345,-0.296454 0.259089,-0.624423 0.385024,-0.923443 0.07024,-0.166771 0.19434,-0.464478 0.275779,-0.661572 0.08144,-0.197093 0.197417,-0.476192 0.257723,-0.620222 0.0603,-0.14403 0.171269,-0.410725 0.24659,-0.592657 0.327663,-0.7914424 0.898773,-2.1626961 0.958635,-2.3017168 0.05241,-0.1217081 0.948793,-2.2765686 1.725746,-4.1486027 0.405454,-0.9769199 0.48404,-1.1576329 0.635318,-1.4609701 0.705962,-1.4155571 1.559545,-2.10839613 2.819833,-2.28881131 0.22783,-0.0326139 0.903253,-0.0395484 3.893095,-0.0399651 l 3.617442,-5.1932e-4 0.01483,0.062022 c 0.02152,0.0900498 0.518772,2.47292813 0.951993,4.56208473 0.283391,1.3666185 0.402348,1.9331995 0.452874,2.1569981 0.02227,0.098546 0.0713,0.3342312 0.109009,0.5237436 0.121414,0.6102582 0.445075,2.1682024 0.801735,3.8591659 0.03677,0.174351 0.136214,0.651922 0.220981,1.06127 0.08477,0.409347 0.209964,1.010963 0.278216,1.336925 0.06825,0.325962 0.259119,1.243892 0.424146,2.039844 0.165031,0.795954 0.375911,1.806917 0.468626,2.246587 0.09271,0.439668 0.210309,1.004071 0.261322,1.254228 0.05102,0.250156 0.187553,0.907593 0.303417,1.460969 0.246635,1.177973 0.937664,4.493192 1.172137,5.623356 0.309366,1.491149 0.43905,2.114198 0.756349,3.633719 C 99.856706,31.174043 100,31.878041 100,31.899755 c 0,0.0341 -0.509558,0.03853 -3.741369,0.03249 l -3.741368,-0.007 -0.03432,-0.15161 c -0.01886,-0.08339 -0.128846,-0.604373 -0.244379,-1.15775 -0.115533,-0.553377 -0.246658,-1.179802 -0.291391,-1.392056 -0.04473,-0.212254 -0.112388,-0.534771 -0.150347,-0.716703 -0.03796,-0.181932 -0.115896,-0.554065 -0.1732,-0.826964 l -0.104186,-0.496178 -5.184555,-0.007 -5.184556,-0.007 -0.05521,0.158574 c -0.482125,1.384797 -0.896109,2.581985 -1.315542,3.804405 -0.14181,0.413303 -0.265422,0.763729 -0.274688,0.778725 -0.03064,0.04959 -8.476196,0.03629 -8.476196,-0.01334 z M 90.250212,20.781927 c 0.0064,-0.01137 -0.0297,-0.212943 -0.08026,-0.447939 -0.05055,-0.234996 -0.142671,-0.66295 -0.204723,-0.951008 -0.06205,-0.28806 -0.149701,-0.697407 -0.194778,-0.909661 -0.161522,-0.760612 -0.389231,-1.825424 -0.86949,-4.065906 -0.05362,-0.250157 -0.127088,-0.597482 -0.163258,-0.771834 -0.03617,-0.174351 -0.116072,-0.546485 -0.177559,-0.826964 -0.06149,-0.280478 -0.161626,-0.745646 -0.22253,-1.033705 -0.590374,-2.7923765 -0.580322,-2.7483202 -0.618391,-2.7102491 -0.0078,0.00777 -0.09329,0.2362237 -0.190026,0.5076638 -0.260719,0.7315683 -0.686163,1.9161893 -0.885083,2.4644573 -0.09626,0.265318 -0.238933,0.662261 -0.317052,0.882096 -0.07811,0.219834 -0.220309,0.616777 -0.315981,0.882094 -0.229507,0.636447 -0.421844,1.173187 -0.577861,1.61258 -0.06998,0.197093 -0.163382,0.457587 -0.207557,0.578875 -0.04418,0.121288 -0.242656,0.673287 -0.441066,1.226663 -0.198413,0.553377 -0.490213,1.365869 -0.64845,1.805539 -0.550393,1.529302 -0.620303,1.726798 -0.620303,1.752309 0,0.03086 6.716988,0.03584 6.734366,0.005 z"
       id="path1" /></g></svg>
